<svg width="24" height="24" viewBox="0 0 24 24" fill="none" xmlns="http://www.w3.org/2000/svg">
<path d="M0.210798 14.4225C0.370474 14.3453 0.562737 14.3907 0.671148 14.5317C1.15126 15.1561 1.77563 15.7318 2.52747 16.2426C6.88426 19.1979 12.8568 18.0894 15.8389 13.7692C18.7697 9.52409 17.7102 3.6541 13.4775 0.684141C13.3351 0.584166 13.2801 0.399591 13.3446 0.238079C13.4094 0.0762286 13.579 -0.0182339 13.7485 0.00629108C15.4913 0.267029 17.2012 0.940116 18.6938 1.95232C21.3858 3.77827 23.1968 6.53508 23.7926 9.71527C24.3858 12.8808 23.7025 16.0877 21.8685 18.7449C19.5108 22.1595 15.6861 23.9971 11.7977 23.9971C9.42871 23.9971 7.03587 23.3149 4.93748 21.8911C2.46999 20.2178 0.720198 17.7174 0.0097599 14.8503C-0.0330658 14.6782 0.0511608 14.4994 0.210798 14.4225ZM5.35865 21.2707C10.5603 24.7995 17.6904 23.4768 21.2511 18.3187C22.9708 15.8277 23.6117 12.8211 23.0554 9.85334C22.4966 6.87127 20.7981 4.28583 18.2727 2.57268C17.3052 1.91643 16.2406 1.41254 15.1361 1.08295C18.6579 4.48432 19.3142 10.0551 16.4563 14.1955C13.241 18.8526 6.80296 20.049 2.10631 16.863C1.79652 16.6528 1.50646 16.4319 1.23695 16.2012C2.06971 18.2425 3.4961 20.0076 5.35865 21.2707Z" fill="url(#paint0_linear_1_14470)"/>
<defs>
<linearGradient id="paint0_linear_1_14470" x1="22.6844" y1="10.9091" x2="0.548672" y2="11.0032" gradientUnits="userSpaceOnUse">
<stop stop-color="#E81CFF"/>
<stop offset="0.0001" stop-color="#E81CFF"/>
<stop offset="1" stop-color="#45CAFF"/>
</linearGradient>
</defs>
</svg>
