<svg width="27" height="27" viewBox="0 0 27 27" fill="none" xmlns="http://www.w3.org/2000/svg">
<g clip-path="url(#clip0_1_14440)">
<path d="M13.5001 21.0302C12.0495 21.0298 10.6299 20.6104 9.41189 19.8225C8.19392 19.0346 7.22945 17.9117 6.63441 16.5887C6.03937 15.2658 5.83909 13.7991 6.05765 12.3651C6.27621 10.9311 6.90431 9.59066 7.86643 8.50505C8.82856 7.41944 10.0838 6.63481 11.4811 6.2455C12.8785 5.85619 14.3586 5.87877 15.7435 6.31052C17.1283 6.74226 18.359 7.5648 19.2876 8.67926C20.2162 9.79371 20.8031 11.1526 20.9778 12.5927C20.9909 12.7046 20.9591 12.8171 20.8893 12.9055C20.8195 12.9939 20.7174 13.051 20.6055 13.0641C20.4936 13.0773 20.3811 13.0454 20.2927 12.9756C20.2043 12.9058 20.1472 12.8037 20.134 12.6918C19.9288 11.0007 19.0857 9.45165 17.7771 8.36098C16.4685 7.27031 14.7929 6.72024 13.0924 6.82307C11.392 6.9259 9.79489 7.67388 8.62722 8.9143C7.45955 10.1547 6.80934 11.794 6.80934 13.4976C6.80934 15.2012 7.45955 16.8405 8.62722 18.0809C9.79489 19.3213 11.392 20.0693 13.0924 20.1721C14.7929 20.275 16.4685 19.7249 17.7771 18.6342C19.0857 17.5435 19.9288 15.9945 20.134 14.3034C20.1472 14.1915 20.2043 14.0894 20.2927 14.0196C20.3811 13.9498 20.4936 13.9179 20.6055 13.9311C20.7174 13.9442 20.8195 14.0013 20.8893 14.0897C20.9591 14.1781 20.9909 14.2906 20.9778 14.4025C20.7562 16.23 19.8732 17.9131 18.4956 19.1342C17.1179 20.3552 15.3409 21.0296 13.5001 21.0302Z" fill="url(#paint0_linear_1_14440)"/>
<path d="M18.1201 16.7607C18.0466 16.7595 17.9747 16.7392 17.9115 16.7017C17.8483 16.6642 17.796 16.6108 17.7598 16.5469C17.7236 16.4829 17.7047 16.4107 17.705 16.3372C17.7053 16.2637 17.7248 16.1915 17.7615 16.1279C18.14 15.5158 18.3797 14.8282 18.4639 14.1135C18.5118 13.7127 18.5118 13.3077 18.4639 12.9069C18.3732 12.1325 18.0999 11.3908 17.6666 10.7427C17.6045 10.6495 17.5819 10.5355 17.6039 10.4257C17.6259 10.316 17.6905 10.2194 17.7837 10.1573C17.8768 10.0952 17.9908 10.0727 18.1006 10.0946C18.2104 10.1166 18.3069 10.1812 18.369 10.2744C18.8728 11.0339 19.1921 11.9008 19.3014 12.8056C19.3576 13.2736 19.3576 13.7467 19.3014 14.2147C19.2028 15.0505 18.9228 15.8547 18.4808 16.5709C18.4416 16.6304 18.388 16.6791 18.3249 16.7122C18.2618 16.7454 18.1914 16.7621 18.1201 16.7607Z" fill="url(#paint1_linear_1_14440)"/>
<path d="M13.5 26.4893C13.3881 26.4893 13.2808 26.4449 13.2017 26.3658C13.1226 26.2867 13.0781 26.1794 13.0781 26.0675V23.2451C13.0781 23.1332 13.1226 23.0259 13.2017 22.9468C13.2808 22.8677 13.3881 22.8232 13.5 22.8232C13.6119 22.8232 13.7192 22.8677 13.7983 22.9468C13.8774 23.0259 13.9219 23.1332 13.9219 23.2451V26.0675C13.9219 26.1794 13.8774 26.2867 13.7983 26.3658C13.7192 26.4449 13.6119 26.4893 13.5 26.4893Z" fill="url(#paint2_linear_1_14440)"/>
<path d="M13.5 4.17635C13.3881 4.17635 13.2808 4.1319 13.2017 4.05278C13.1226 3.97367 13.0781 3.86636 13.0781 3.75447V0.932129C13.0781 0.820241 13.1226 0.712935 13.2017 0.633818C13.2808 0.554701 13.3881 0.510254 13.5 0.510254C13.6119 0.510254 13.7192 0.554701 13.7983 0.633818C13.8774 0.712935 13.9219 0.820241 13.9219 0.932129V3.75447C13.9219 3.86636 13.8774 3.97367 13.7983 4.05278C13.7192 4.1319 13.6119 4.17635 13.5 4.17635Z" fill="url(#paint3_linear_1_14440)"/>
<path d="M3.75522 23.6668C3.6716 23.6669 3.58986 23.6421 3.52035 23.5956C3.45085 23.5491 3.39673 23.483 3.36486 23.4057C3.33298 23.3284 3.3248 23.2434 3.34135 23.1614C3.3579 23.0795 3.39843 23.0043 3.4578 22.9454L6.31178 20.0914C6.35098 20.0522 6.39751 20.0211 6.44872 19.9999C6.49994 19.9787 6.55483 19.9678 6.61026 19.9678C6.66569 19.9678 6.72058 19.9787 6.77179 19.9999C6.82301 20.0211 6.86954 20.0522 6.90874 20.0914C6.94793 20.1306 6.97902 20.1771 7.00024 20.2283C7.02145 20.2796 7.03237 20.3345 7.03237 20.3899C7.03237 20.4453 7.02145 20.5002 7.00024 20.5514C6.97902 20.6026 6.94793 20.6492 6.90874 20.6884L4.05475 23.5423C4.0155 23.5818 3.96883 23.6131 3.91742 23.6345C3.86602 23.6559 3.81089 23.6668 3.75522 23.6668Z" fill="url(#paint4_linear_1_14440)"/>
<path d="M20.3919 7.03049C20.3086 7.03055 20.2271 7.00592 20.1577 6.9597C20.0883 6.91348 20.0342 6.84775 20.0021 6.77079C19.9701 6.69384 19.9616 6.60911 19.9776 6.52731C19.9937 6.44552 20.0336 6.37031 20.0924 6.31119L22.9211 3.48252C23.0002 3.40336 23.1076 3.35889 23.2196 3.35889C23.3315 3.35889 23.4389 3.40336 23.518 3.48252C23.5972 3.56168 23.6417 3.66905 23.6417 3.781C23.6417 3.89295 23.5972 4.00031 23.518 4.07947L20.6894 6.90814C20.6103 6.9866 20.5033 7.03058 20.3919 7.03049Z" fill="url(#paint5_linear_1_14440)"/>
<path d="M23.2459 23.6668C23.1902 23.6668 23.1351 23.6559 23.0837 23.6345C23.0323 23.6131 22.9856 23.5818 22.9464 23.5423L20.0924 20.6884C20.0532 20.6492 20.0221 20.6026 20.0009 20.5514C19.9797 20.5002 19.9688 20.4453 19.9688 20.3899C19.9687 20.3345 19.9797 20.2796 20.0009 20.2283C20.0221 20.1771 20.0532 20.1306 20.0924 20.0914C20.1316 20.0522 20.1781 20.0211 20.2293 19.9999C20.2805 19.9787 20.3354 19.9678 20.3909 19.9678C20.4463 19.9678 20.5012 19.9787 20.5524 19.9999C20.6036 20.0211 20.6501 20.0522 20.6893 20.0914L23.5433 22.9454C23.6027 23.0043 23.6432 23.0795 23.6598 23.1614C23.6763 23.2434 23.6681 23.3284 23.6363 23.4057C23.6044 23.483 23.5503 23.5491 23.4808 23.5956C23.4113 23.6421 23.3295 23.6669 23.2459 23.6668Z" fill="url(#paint6_linear_1_14440)"/>
<path d="M6.6091 7.03049C6.4977 7.03058 6.39078 6.9866 6.31168 6.90814L3.48301 4.07947C3.40385 4.00031 3.35937 3.89295 3.35938 3.781C3.35938 3.66905 3.40385 3.56168 3.48301 3.48252C3.56217 3.40336 3.66953 3.35889 3.78148 3.35889C3.89343 3.35889 4.0008 3.40336 4.07996 3.48252L6.90863 6.31119C6.9674 6.37031 7.00734 6.44552 7.0234 6.52731C7.03947 6.60911 7.03094 6.69384 6.99889 6.77079C6.96685 6.84775 6.91272 6.91348 6.84335 6.9597C6.77397 7.00592 6.69246 7.03055 6.6091 7.03049Z" fill="url(#paint7_linear_1_14440)"/>
<path d="M26.0675 13.9219H23.2451C23.1332 13.9219 23.0259 13.8774 22.9468 13.7983C22.8677 13.7192 22.8232 13.6119 22.8232 13.5C22.8232 13.3881 22.8677 13.2808 22.9468 13.2017C23.0259 13.1226 23.1332 13.0781 23.2451 13.0781H26.0675C26.1794 13.0781 26.2867 13.1226 26.3658 13.2017C26.4449 13.2808 26.4893 13.3881 26.4893 13.5C26.4893 13.6119 26.4449 13.7192 26.3658 13.7983C26.2867 13.8774 26.1794 13.9219 26.0675 13.9219Z" fill="url(#paint8_linear_1_14440)"/>
<path d="M3.75496 13.9219H0.932617C0.820729 13.9219 0.713423 13.8774 0.634307 13.7983C0.55519 13.7192 0.510742 13.6119 0.510742 13.5C0.510742 13.3881 0.55519 13.2808 0.634307 13.2017C0.713423 13.1226 0.820729 13.0781 0.932617 13.0781H3.75496C3.86685 13.0781 3.97416 13.1226 4.05327 13.2017C4.13239 13.2808 4.17684 13.3881 4.17684 13.5C4.17684 13.6119 4.13239 13.7192 4.05327 13.7983C3.97416 13.8774 3.86685 13.9219 3.75496 13.9219Z" fill="url(#paint9_linear_1_14440)"/>
</g>
<defs>
<linearGradient id="paint0_linear_1_14440" x1="6.79496" y1="12.8151" x2="20.6368" y2="12.8737" gradientUnits="userSpaceOnUse">
<stop stop-color="#E81CFF"/>
<stop offset="0.0001" stop-color="#E81CFF"/>
<stop offset="1" stop-color="#45CAFF"/>
</linearGradient>
<linearGradient id="paint1_linear_1_14440" x1="17.6916" y1="13.1202" x2="19.3035" y2="13.122" gradientUnits="userSpaceOnUse">
<stop stop-color="#E81CFF"/>
<stop offset="0.0001" stop-color="#E81CFF"/>
<stop offset="1" stop-color="#45CAFF"/>
</linearGradient>
<linearGradient id="paint2_linear_1_14440" x1="13.1244" y1="24.4896" x2="13.9026" y2="24.4904" gradientUnits="userSpaceOnUse">
<stop stop-color="#E81CFF"/>
<stop offset="0.0001" stop-color="#E81CFF"/>
<stop offset="1" stop-color="#45CAFF"/>
</linearGradient>
<linearGradient id="paint3_linear_1_14440" x1="13.1244" y1="2.17666" x2="13.9026" y2="2.17742" gradientUnits="userSpaceOnUse">
<stop stop-color="#E81CFF"/>
<stop offset="0.0001" stop-color="#E81CFF"/>
<stop offset="1" stop-color="#45CAFF"/>
</linearGradient>
<linearGradient id="paint4_linear_1_14440" x1="3.53593" y1="21.6491" x2="6.9476" y2="21.6636" gradientUnits="userSpaceOnUse">
<stop stop-color="#E81CFF"/>
<stop offset="0.0001" stop-color="#E81CFF"/>
<stop offset="1" stop-color="#45CAFF"/>
</linearGradient>
<linearGradient id="paint5_linear_1_14440" x1="20.1711" y1="5.0278" x2="23.5575" y2="5.04218" gradientUnits="userSpaceOnUse">
<stop stop-color="#E81CFF"/>
<stop offset="0.0001" stop-color="#E81CFF"/>
<stop offset="1" stop-color="#45CAFF"/>
</linearGradient>
<linearGradient id="paint6_linear_1_14440" x1="20.1717" y1="21.6491" x2="23.5833" y2="21.6636" gradientUnits="userSpaceOnUse">
<stop stop-color="#E81CFF"/>
<stop offset="0.0001" stop-color="#E81CFF"/>
<stop offset="1" stop-color="#45CAFF"/>
</linearGradient>
<linearGradient id="paint7_linear_1_14440" x1="3.56079" y1="5.0278" x2="6.94717" y2="5.04218" gradientUnits="userSpaceOnUse">
<stop stop-color="#E81CFF"/>
<stop offset="0.0001" stop-color="#E81CFF"/>
<stop offset="1" stop-color="#45CAFF"/>
</linearGradient>
<linearGradient id="paint8_linear_1_14440" x1="23.0243" y1="13.4616" x2="26.4042" y2="13.524" gradientUnits="userSpaceOnUse">
<stop stop-color="#E81CFF"/>
<stop offset="0.0001" stop-color="#E81CFF"/>
<stop offset="1" stop-color="#45CAFF"/>
</linearGradient>
<linearGradient id="paint9_linear_1_14440" x1="0.711836" y1="13.4616" x2="4.09174" y2="13.524" gradientUnits="userSpaceOnUse">
<stop stop-color="#E81CFF"/>
<stop offset="0.0001" stop-color="#E81CFF"/>
<stop offset="1" stop-color="#45CAFF"/>
</linearGradient>
<clipPath id="clip0_1_14440">
<rect width="27" height="27" fill="white"/>
</clipPath>
</defs>
</svg>
