<svg width="21" height="28" viewBox="0 0 21 28" fill="none" xmlns="http://www.w3.org/2000/svg">
<path d="M11.59 0.605554C11.3009 0.316536 10.9089 0.154175 10.5001 0.154175C10.0913 0.154175 9.69923 0.316536 9.41012 0.605554L0.688915 9.32676C0.54167 9.46898 0.424222 9.63909 0.343425 9.82718C0.262628 10.0153 0.220099 10.2176 0.21832 10.4223C0.216541 10.627 0.255548 10.83 0.333065 11.0194C0.410581 11.2089 0.525055 11.381 0.669806 11.5258C0.814557 11.6705 0.986687 11.785 1.17615 11.8625C1.36562 11.94 1.56862 11.9791 1.77332 11.9773C1.97803 11.9755 2.18032 11.933 2.36841 11.8522C2.5565 11.7714 2.72662 11.6539 2.86883 11.5067L8.95842 5.4171V25.8334C8.95842 26.2423 9.12084 26.6344 9.40996 26.9235C9.69908 27.2126 10.0912 27.3751 10.5001 27.3751C10.909 27.3751 11.3011 27.2126 11.5902 26.9235C11.8793 26.6344 12.0417 26.2423 12.0417 25.8334V5.4171L18.1313 11.5067C18.4221 11.7875 18.8115 11.9429 19.2157 11.9394C19.62 11.9359 20.0066 11.7737 20.2925 11.4879C20.5783 11.2021 20.7404 10.8154 20.744 10.4112C20.7475 10.007 20.5921 9.61752 20.3113 9.32676L11.59 0.605554Z" fill="url(#paint0_linear_1_14377)"/>
<defs>
<linearGradient id="paint0_linear_1_14377" x1="1.34415" y1="12.5273" x2="20.2738" y2="12.5879" gradientUnits="userSpaceOnUse">
<stop stop-color="#E81CFF"/>
<stop offset="0.0001" stop-color="#E81CFF"/>
<stop offset="1" stop-color="#45CAFF"/>
</linearGradient>
</defs>
</svg>
