<svg width="917" height="817" viewBox="0 0 917 817" fill="none" xmlns="http://www.w3.org/2000/svg">
<path d="M749 366C749 408.259 739.635 449.993 721.579 488.201C703.522 526.408 677.223 560.14 644.573 586.969C611.923 613.798 573.733 633.058 532.75 643.364C491.766 653.671 449.009 654.766 407.551 646.573C366.094 638.38 326.967 621.102 292.985 595.98C259.004 570.859 231.011 538.519 211.021 501.287C191.031 464.055 179.54 422.855 177.376 380.652C175.211 338.448 182.425 296.289 198.501 257.206L314.88 305.076C305.878 326.962 301.838 350.571 303.05 374.205C304.263 397.839 310.697 420.911 321.892 441.761C333.086 462.611 348.762 480.721 367.792 494.789C386.822 508.857 408.732 518.533 431.949 523.121C455.165 527.709 479.109 527.095 502.06 521.324C525.01 515.553 546.397 504.767 564.681 489.742C582.965 474.718 597.693 455.829 607.804 434.432C617.916 413.036 623.16 389.665 623.16 366H749Z" fill="#B94EFF"/>
<path d="M539.658 90.4649C599.905 107.227 652.998 143.272 690.807 193.083C728.616 242.894 749.057 303.724 749 366.26L623.16 366.145C623.192 331.126 611.745 297.061 590.572 269.167C569.399 241.273 539.667 221.087 505.928 211.7L539.658 90.4649Z" fill="#8587FF"/>
<path d="M198.061 258.282C225.301 191.281 276.916 137.09 342.511 106.619C408.106 76.1487 482.81 71.6622 551.58 94.0632L512.605 213.715C474.093 201.171 432.259 203.683 395.526 220.747C358.793 237.81 329.889 268.158 314.634 305.678L198.061 258.282Z" fill="#4BC4FF"/>
<line x1="796.354" y1="293.354" x2="728.471" y2="361.236" stroke="white"/>
<line  y1="-0.5" x2="96.1665" y2="-0.5" transform="matrix(0.707107 0.707107 0.707107 -0.707107 188 130)" stroke="white"/>
<line x1="858" y1="293.5" x2="796" y2="293.5" stroke="white"/>
<line y1="-0.5" x2="62" y2="-0.5" transform="matrix(1 0 0 -1 126 130)" stroke="white"/>
<path  opacity="0.9" d="M796.84 280V277.912L803.512 271.576C804.072 271.048 804.488 270.584 804.76 270.184C805.032 269.784 805.208 269.416 805.288 269.08C805.384 268.728 805.432 268.4 805.432 268.096C805.432 267.328 805.168 266.736 804.64 266.32C804.112 265.888 803.336 265.672 802.312 265.672C801.496 265.672 800.752 265.816 800.08 266.104C799.424 266.392 798.856 266.832 798.376 267.424L796.192 265.744C796.848 264.864 797.728 264.184 798.832 263.704C799.952 263.208 801.2 262.96 802.576 262.96C803.792 262.96 804.848 263.16 805.744 263.56C806.656 263.944 807.352 264.496 807.832 265.216C808.328 265.936 808.576 266.792 808.576 267.784C808.576 268.328 808.504 268.872 808.36 269.416C808.216 269.944 807.944 270.504 807.544 271.096C807.144 271.688 806.56 272.352 805.792 273.088L800.056 278.536L799.408 277.36H809.224V280H796.84ZM810.433 276.184V274.024L818.713 263.2H822.049L813.889 274.024L812.329 273.544H825.649V276.184H810.433ZM819.649 280V276.184L819.745 273.544V270.16H822.673V280H819.649ZM829.303 280.168C828.759 280.168 828.295 279.984 827.911 279.616C827.527 279.232 827.335 278.752 827.335 278.176C827.335 277.568 827.527 277.088 827.911 276.736C828.295 276.368 828.759 276.184 829.303 276.184C829.847 276.184 830.311 276.368 830.695 276.736C831.079 277.088 831.271 277.568 831.271 278.176C831.271 278.752 831.079 279.232 830.695 279.616C830.311 279.984 829.847 280.168 829.303 280.168ZM833.309 280V277.912L839.981 271.576C840.541 271.048 840.957 270.584 841.229 270.184C841.501 269.784 841.677 269.416 841.757 269.08C841.853 268.728 841.901 268.4 841.901 268.096C841.901 267.328 841.637 266.736 841.109 266.32C840.581 265.888 839.805 265.672 838.781 265.672C837.965 265.672 837.221 265.816 836.549 266.104C835.893 266.392 835.325 266.832 834.845 267.424L832.661 265.744C833.317 264.864 834.197 264.184 835.301 263.704C836.421 263.208 837.669 262.96 839.045 262.96C840.261 262.96 841.317 263.16 842.213 263.56C843.125 263.944 843.821 264.496 844.301 265.216C844.797 265.936 845.045 266.792 845.045 267.784C845.045 268.328 844.973 268.872 844.829 269.416C844.685 269.944 844.413 270.504 844.013 271.096C843.613 271.688 843.029 272.352 842.261 273.088L836.525 278.536L835.877 277.36H845.693V280H833.309ZM850.08 280L861.552 263.2H863.904L852.432 280H850.08ZM851.472 272.248C850.688 272.248 849.992 272.056 849.384 271.672C848.776 271.288 848.304 270.752 847.968 270.064C847.632 269.376 847.464 268.568 847.464 267.64C847.464 266.712 847.632 265.904 847.968 265.216C848.304 264.528 848.776 263.992 849.384 263.608C849.992 263.224 850.688 263.032 851.472 263.032C852.288 263.032 852.992 263.224 853.584 263.608C854.192 263.992 854.664 264.528 855 265.216C855.336 265.904 855.504 266.712 855.504 267.64C855.504 268.568 855.336 269.376 855 270.064C854.664 270.752 854.192 271.288 853.584 271.672C852.992 272.056 852.288 272.248 851.472 272.248ZM851.496 270.568C852.136 270.568 852.632 270.32 852.984 269.824C853.352 269.312 853.536 268.584 853.536 267.64C853.536 266.696 853.352 265.976 852.984 265.48C852.632 264.968 852.136 264.712 851.496 264.712C850.856 264.712 850.344 264.968 849.96 265.48C849.592 265.992 849.408 266.712 849.408 267.64C849.408 268.568 849.592 269.288 849.96 269.8C850.344 270.312 850.856 270.568 851.496 270.568ZM862.488 280.168C861.704 280.168 861.008 279.976 860.4 279.592C859.792 279.208 859.32 278.672 858.984 277.984C858.648 277.296 858.48 276.488 858.48 275.56C858.48 274.632 858.648 273.824 858.984 273.136C859.32 272.448 859.792 271.912 860.4 271.528C861.008 271.144 861.704 270.952 862.488 270.952C863.304 270.952 864.008 271.144 864.6 271.528C865.208 271.912 865.68 272.448 866.016 273.136C866.352 273.824 866.52 274.632 866.52 275.56C866.52 276.488 866.352 277.296 866.016 277.984C865.68 278.672 865.208 279.208 864.6 279.592C864.008 279.976 863.304 280.168 862.488 280.168ZM862.488 278.488C863.128 278.488 863.632 278.232 864 277.72C864.368 277.208 864.552 276.488 864.552 275.56C864.552 274.632 864.368 273.912 864 273.4C863.632 272.888 863.128 272.632 862.488 272.632C861.864 272.632 861.36 272.888 860.976 273.4C860.608 273.896 860.424 274.616 860.424 275.56C860.424 276.504 860.608 277.232 860.976 277.744C861.36 278.24 861.864 278.488 862.488 278.488Z" fill="black"/>
<path  opacity="0.9" d="M420.02 592.23V589.53L430.37 576H434.54L424.34 589.53L422.39 588.93H439.04V592.23H420.02ZM431.54 597V592.23L431.66 588.93V584.7H435.32V597H431.54ZM440.381 592.23V589.53L450.731 576H454.901L444.701 589.53L442.751 588.93H459.401V592.23H440.381ZM451.901 597V592.23L452.021 588.93V584.7H455.681V597H451.901ZM463.074 597L477.414 576H480.354L466.014 597H463.074ZM464.814 587.31C463.834 587.31 462.964 587.07 462.204 586.59C461.444 586.11 460.854 585.44 460.434 584.58C460.014 583.72 459.804 582.71 459.804 581.55C459.804 580.39 460.014 579.38 460.434 578.52C460.854 577.66 461.444 576.99 462.204 576.51C462.964 576.03 463.834 575.79 464.814 575.79C465.834 575.79 466.714 576.03 467.454 576.51C468.214 576.99 468.804 577.66 469.224 578.52C469.644 579.38 469.854 580.39 469.854 581.55C469.854 582.71 469.644 583.72 469.224 584.58C468.804 585.44 468.214 586.11 467.454 586.59C466.714 587.07 465.834 587.31 464.814 587.31ZM464.844 585.21C465.644 585.21 466.264 584.9 466.704 584.28C467.164 583.64 467.394 582.73 467.394 581.55C467.394 580.37 467.164 579.47 466.704 578.85C466.264 578.21 465.644 577.89 464.844 577.89C464.044 577.89 463.404 578.21 462.924 578.85C462.464 579.49 462.234 580.39 462.234 581.55C462.234 582.71 462.464 583.61 462.924 584.25C463.404 584.89 464.044 585.21 464.844 585.21ZM478.584 597.21C477.604 597.21 476.734 596.97 475.974 596.49C475.214 596.01 474.624 595.34 474.204 594.48C473.784 593.62 473.574 592.61 473.574 591.45C473.574 590.29 473.784 589.28 474.204 588.42C474.624 587.56 475.214 586.89 475.974 586.41C476.734 585.93 477.604 585.69 478.584 585.69C479.604 585.69 480.484 585.93 481.224 586.41C481.984 586.89 482.574 587.56 482.994 588.42C483.414 589.28 483.624 590.29 483.624 591.45C483.624 592.61 483.414 593.62 482.994 594.48C482.574 595.34 481.984 596.01 481.224 596.49C480.484 596.97 479.604 597.21 478.584 597.21ZM478.584 595.11C479.384 595.11 480.014 594.79 480.474 594.15C480.934 593.51 481.164 592.61 481.164 591.45C481.164 590.29 480.934 589.39 480.474 588.75C480.014 588.11 479.384 587.79 478.584 587.79C477.804 587.79 477.174 588.11 476.694 588.75C476.234 589.37 476.004 590.27 476.004 591.45C476.004 592.63 476.234 593.54 476.694 594.18C477.174 594.8 477.804 595.11 478.584 595.11Z" fill="white "/>
<path  opacity="0.9" d="M136.336 109.24C135.152 109.24 133.992 109.072 132.856 108.736C131.736 108.384 130.792 107.904 130.024 107.296L131.368 104.872C131.976 105.368 132.712 105.768 133.576 106.072C134.44 106.376 135.344 106.528 136.288 106.528C137.408 106.528 138.28 106.304 138.904 105.856C139.528 105.392 139.84 104.768 139.84 103.984C139.84 103.216 139.552 102.608 138.976 102.16C138.4 101.712 137.472 101.488 136.192 101.488H134.656V99.352L139.456 93.64L139.864 94.816H130.84V92.2H142.288V94.288L137.488 100L135.856 99.04H136.792C138.856 99.04 140.4 99.504 141.424 100.432C142.464 101.344 142.984 102.52 142.984 103.96C142.984 104.904 142.744 105.776 142.264 106.576C141.784 107.376 141.048 108.024 140.056 108.52C139.08 109 137.84 109.24 136.336 109.24ZM150.188 109.24C149.004 109.24 147.844 109.072 146.708 108.736C145.588 108.384 144.644 107.904 143.876 107.296L145.22 104.872C145.828 105.368 146.564 105.768 147.428 106.072C148.292 106.376 149.196 106.528 150.14 106.528C151.26 106.528 152.132 106.304 152.756 105.856C153.38 105.392 153.692 104.768 153.692 103.984C153.692 103.216 153.404 102.608 152.828 102.16C152.252 101.712 151.324 101.488 150.044 101.488H148.508V99.352L153.308 93.64L153.716 94.816H144.692V92.2H156.14V94.288L151.34 100L149.708 99.04H150.644C152.708 99.04 154.252 99.504 155.276 100.432C156.316 101.344 156.836 102.52 156.836 103.96C156.836 104.904 156.596 105.776 156.116 106.576C155.636 107.376 154.9 108.024 153.908 108.52C152.932 109 151.692 109.24 150.188 109.24ZM160.748 109.168C160.204 109.168 159.74 108.984 159.356 108.616C158.972 108.232 158.78 107.752 158.78 107.176C158.78 106.568 158.972 106.088 159.356 105.736C159.74 105.368 160.204 105.184 160.748 105.184C161.292 105.184 161.756 105.368 162.14 105.736C162.524 106.088 162.716 106.568 162.716 107.176C162.716 107.752 162.524 108.232 162.14 108.616C161.756 108.984 161.292 109.168 160.748 109.168ZM167.192 109L174.128 93.448L174.944 94.84H165.416L166.904 93.328V97.696H164V92.2H177.056V94.288L170.528 109H167.192ZM181.361 109L192.833 92.2H195.185L183.713 109H181.361ZM182.753 101.248C181.969 101.248 181.273 101.056 180.665 100.672C180.057 100.288 179.585 99.752 179.249 99.064C178.913 98.376 178.745 97.568 178.745 96.64C178.745 95.712 178.913 94.904 179.249 94.216C179.585 93.528 180.057 92.992 180.665 92.608C181.273 92.224 181.969 92.032 182.753 92.032C183.569 92.032 184.273 92.224 184.865 92.608C185.473 92.992 185.945 93.528 186.281 94.216C186.617 94.904 186.785 95.712 186.785 96.64C186.785 97.568 186.617 98.376 186.281 99.064C185.945 99.752 185.473 100.288 184.865 100.672C184.273 101.056 183.569 101.248 182.753 101.248ZM182.777 99.568C183.417 99.568 183.913 99.32 184.265 98.824C184.633 98.312 184.817 97.584 184.817 96.64C184.817 95.696 184.633 94.976 184.265 94.48C183.913 93.968 183.417 93.712 182.777 93.712C182.137 93.712 181.625 93.968 181.241 94.48C180.873 94.992 180.689 95.712 180.689 96.64C180.689 97.568 180.873 98.288 181.241 98.8C181.625 99.312 182.137 99.568 182.777 99.568ZM193.769 109.168C192.985 109.168 192.289 108.976 191.681 108.592C191.073 108.208 190.601 107.672 190.265 106.984C189.929 106.296 189.761 105.488 189.761 104.56C189.761 103.632 189.929 102.824 190.265 102.136C190.601 101.448 191.073 100.912 191.681 100.528C192.289 100.144 192.985 99.952 193.769 99.952C194.585 99.952 195.289 100.144 195.881 100.528C196.489 100.912 196.961 101.448 197.297 102.136C197.633 102.824 197.801 103.632 197.801 104.56C197.801 105.488 197.633 106.296 197.297 106.984C196.961 107.672 196.489 108.208 195.881 108.592C195.289 108.976 194.585 109.168 193.769 109.168ZM193.769 107.488C194.409 107.488 194.913 107.232 195.281 106.72C195.649 106.208 195.833 105.488 195.833 104.56C195.833 103.632 195.649 102.912 195.281 102.4C194.913 101.888 194.409 101.632 193.769 101.632C193.145 101.632 192.641 101.888 192.257 102.4C191.889 102.896 191.705 103.616 191.705 104.56C191.705 105.504 191.889 106.232 192.257 106.744C192.641 107.24 193.145 107.488 193.769 107.488Z" fill="white"/>
<g opacity="0.9">
<g filter="url(#filter0_bd_1_14329)">
<rect x="582" y="502" width="229" height="116" rx="12" fill="url(#paint0_linear_1_14329)"/>
<rect x="582" y="502" width="229" height="116" rx="12" fill="white" fill-opacity="0.9"/>
</g>
<path d="M602.098 529L597.832 522.862L599.722 521.692L604.744 529H602.098ZM593.764 529V516.4H596.068V529H593.764ZM595.366 523.69V521.674H599.614V523.69H595.366ZM599.938 522.97L597.796 522.682L602.098 516.4H604.582L599.938 522.97ZM610.241 529.126C609.257 529.126 608.381 528.916 607.613 528.496C606.845 528.064 606.239 527.476 605.795 526.732C605.351 525.988 605.129 525.142 605.129 524.194C605.129 523.234 605.351 522.388 605.795 521.656C606.239 520.912 606.845 520.33 607.613 519.91C608.381 519.49 609.257 519.28 610.241 519.28C611.237 519.28 612.119 519.49 612.887 519.91C613.667 520.33 614.273 520.906 614.705 521.638C615.149 522.37 615.371 523.222 615.371 524.194C615.371 525.142 615.149 525.988 614.705 526.732C614.273 527.476 613.667 528.064 612.887 528.496C612.119 528.916 611.237 529.126 610.241 529.126ZM610.241 527.2C610.793 527.2 611.285 527.08 611.717 526.84C612.149 526.6 612.485 526.252 612.725 525.796C612.977 525.34 613.103 524.806 613.103 524.194C613.103 523.57 612.977 523.036 612.725 522.592C612.485 522.136 612.149 521.788 611.717 521.548C611.285 521.308 610.799 521.188 610.259 521.188C609.707 521.188 609.215 521.308 608.783 521.548C608.363 521.788 608.027 522.136 607.775 522.592C607.523 523.036 607.397 523.57 607.397 524.194C607.397 524.806 607.523 525.34 607.775 525.796C608.027 526.252 608.363 526.6 608.783 526.84C609.215 527.08 609.701 527.2 610.241 527.2ZM617.594 529V519.388H619.952L623.822 526.21H622.886L626.954 519.388H629.06L629.078 529H627.044V521.8L627.404 522.034L623.804 527.992H622.832L619.214 521.872L619.646 521.764V529H617.594ZM632.096 529V519.388H634.346V525.724L639.656 519.388H641.708V529H639.458V522.664L634.166 529H632.096ZM649.109 529.126C648.101 529.126 647.201 528.916 646.409 528.496C645.629 528.064 645.017 527.476 644.573 526.732C644.129 525.988 643.907 525.142 643.907 524.194C643.907 523.234 644.129 522.388 644.573 521.656C645.017 520.912 645.629 520.33 646.409 519.91C647.201 519.49 648.101 519.28 649.109 519.28C650.045 519.28 650.867 519.472 651.575 519.856C652.295 520.228 652.841 520.78 653.213 521.512L651.485 522.52C651.197 522.064 650.843 521.728 650.423 521.512C650.015 521.296 649.571 521.188 649.091 521.188C648.539 521.188 648.041 521.308 647.597 521.548C647.153 521.788 646.805 522.136 646.553 522.592C646.301 523.036 646.175 523.57 646.175 524.194C646.175 524.818 646.301 525.358 646.553 525.814C646.805 526.258 647.153 526.6 647.597 526.84C648.041 527.08 648.539 527.2 649.091 527.2C649.571 527.2 650.015 527.092 650.423 526.876C650.843 526.66 651.197 526.324 651.485 525.868L653.213 526.876C652.841 527.596 652.295 528.154 651.575 528.55C650.867 528.934 650.045 529.126 649.109 529.126ZM659.427 529.126C658.419 529.126 657.519 528.916 656.727 528.496C655.947 528.064 655.335 527.476 654.891 526.732C654.447 525.988 654.225 525.142 654.225 524.194C654.225 523.234 654.447 522.388 654.891 521.656C655.335 520.912 655.947 520.33 656.727 519.91C657.519 519.49 658.419 519.28 659.427 519.28C660.363 519.28 661.185 519.472 661.893 519.856C662.613 520.228 663.159 520.78 663.531 521.512L661.803 522.52C661.515 522.064 661.161 521.728 660.741 521.512C660.333 521.296 659.889 521.188 659.409 521.188C658.857 521.188 658.359 521.308 657.915 521.548C657.471 521.788 657.123 522.136 656.871 522.592C656.619 523.036 656.493 523.57 656.493 524.194C656.493 524.818 656.619 525.358 656.871 525.814C657.123 526.258 657.471 526.6 657.915 526.84C658.359 527.08 658.857 527.2 659.409 527.2C659.889 527.2 660.333 527.092 660.741 526.876C661.161 526.66 661.515 526.324 661.803 525.868L663.531 526.876C663.159 527.596 662.613 528.154 661.893 528.55C661.185 528.934 660.363 529.126 659.427 529.126ZM665.512 529V519.388H667.762V525.724L673.072 519.388H675.124V529H672.874V522.664L667.582 529H665.512ZM684.253 529V525.724L684.577 526.102H681.697C680.377 526.102 679.339 525.826 678.583 525.274C677.839 524.71 677.467 523.9 677.467 522.844C677.467 521.716 677.863 520.858 678.655 520.27C679.459 519.682 680.527 519.388 681.859 519.388H686.269V529H684.253ZM677.341 529L679.933 525.328H682.237L679.753 529H677.341ZM684.253 525.004V520.684L684.577 521.278H681.931C681.235 521.278 680.695 521.41 680.311 521.674C679.939 521.926 679.753 522.34 679.753 522.916C679.753 523.996 680.455 524.536 681.859 524.536H684.577L684.253 525.004ZM593.512 551V541.388H595.87L599.74 548.21H598.804L602.872 541.388H604.978L604.996 551H602.962V543.8L603.322 544.034L599.722 549.992H598.75L595.132 543.872L595.564 543.764V551H593.512ZM613.846 551V549.056L613.72 548.642V545.24C613.72 544.58 613.522 544.07 613.126 543.71C612.73 543.338 612.13 543.152 611.326 543.152C610.786 543.152 610.252 543.236 609.724 543.404C609.208 543.572 608.77 543.806 608.41 544.106L607.528 542.468C608.044 542.072 608.656 541.778 609.364 541.586C610.084 541.382 610.828 541.28 611.596 541.28C612.988 541.28 614.062 541.616 614.818 542.288C615.586 542.948 615.97 543.974 615.97 545.366V551H613.846ZM610.822 551.126C610.102 551.126 609.472 551.006 608.932 550.766C608.392 550.514 607.972 550.172 607.672 549.74C607.384 549.296 607.24 548.798 607.24 548.246C607.24 547.706 607.366 547.22 607.618 546.788C607.882 546.356 608.308 546.014 608.896 545.762C609.484 545.51 610.264 545.384 611.236 545.384H614.026V546.878H611.398C610.63 546.878 610.114 547.004 609.85 547.256C609.586 547.496 609.454 547.796 609.454 548.156C609.454 548.564 609.616 548.888 609.94 549.128C610.264 549.368 610.714 549.488 611.29 549.488C611.842 549.488 612.334 549.362 612.766 549.11C613.21 548.858 613.528 548.486 613.72 547.994L614.098 549.344C613.882 549.908 613.492 550.346 612.928 550.658C612.376 550.97 611.674 551.126 610.822 551.126ZM624.082 551.126C623.302 551.126 622.588 550.946 621.94 550.586C621.304 550.226 620.794 549.686 620.41 548.966C620.038 548.234 619.852 547.31 619.852 546.194C619.852 545.066 620.032 544.142 620.392 543.422C620.764 542.702 621.268 542.168 621.904 541.82C622.54 541.46 623.266 541.28 624.082 541.28C625.03 541.28 625.864 541.484 626.584 541.892C627.316 542.3 627.892 542.87 628.312 543.602C628.744 544.334 628.96 545.198 628.96 546.194C628.96 547.19 628.744 548.06 628.312 548.804C627.892 549.536 627.316 550.106 626.584 550.514C625.864 550.922 625.03 551.126 624.082 551.126ZM618.754 554.492V541.388H620.896V543.656L620.824 546.212L621.004 548.768V554.492H618.754ZM623.83 549.2C624.37 549.2 624.85 549.08 625.27 548.84C625.702 548.6 626.044 548.252 626.296 547.796C626.548 547.34 626.674 546.806 626.674 546.194C626.674 545.57 626.548 545.036 626.296 544.592C626.044 544.136 625.702 543.788 625.27 543.548C624.85 543.308 624.37 543.188 623.83 543.188C623.29 543.188 622.804 543.308 622.372 543.548C621.94 543.788 621.598 544.136 621.346 544.592C621.094 545.036 620.968 545.57 620.968 546.194C620.968 546.806 621.094 547.34 621.346 547.796C621.598 548.252 621.94 548.6 622.372 548.84C622.804 549.08 623.29 549.2 623.83 549.2ZM638.094 551L634.62 546.392L636.456 545.258L640.74 551H638.094ZM631.2 551V541.388H633.45V551H631.2ZM632.784 547.148V545.276H636.042V547.148H632.784ZM636.672 546.464L634.566 546.212L638.094 541.388H640.506L636.672 546.464ZM646.492 551.126C645.424 551.126 644.488 550.916 643.684 550.496C642.892 550.064 642.274 549.476 641.83 548.732C641.398 547.988 641.182 547.142 641.182 546.194C641.182 545.234 641.392 544.388 641.812 543.656C642.244 542.912 642.832 542.33 643.576 541.91C644.332 541.49 645.19 541.28 646.15 541.28C647.086 541.28 647.92 541.484 648.652 541.892C649.384 542.3 649.96 542.876 650.38 543.62C650.8 544.364 651.01 545.24 651.01 546.248C651.01 546.344 651.004 546.452 650.992 546.572C650.992 546.692 650.986 546.806 650.974 546.914H642.964V545.42H649.786L648.904 545.888C648.916 545.336 648.802 544.85 648.562 544.43C648.322 544.01 647.992 543.68 647.572 543.44C647.164 543.2 646.69 543.08 646.15 543.08C645.598 543.08 645.112 543.2 644.692 543.44C644.284 543.68 643.96 544.016 643.72 544.448C643.492 544.868 643.378 545.366 643.378 545.942V546.302C643.378 546.878 643.51 547.388 643.774 547.832C644.038 548.276 644.41 548.618 644.89 548.858C645.37 549.098 645.922 549.218 646.546 549.218C647.086 549.218 647.572 549.134 648.004 548.966C648.436 548.798 648.82 548.534 649.156 548.174L650.362 549.56C649.93 550.064 649.384 550.454 648.724 550.73C648.076 550.994 647.332 551.126 646.492 551.126ZM655.1 551V542.756L655.622 543.296H651.716V541.388H660.716V543.296H656.828L657.35 542.756V551H655.1ZM662.348 551V541.388H671.564V551H669.332V542.774L669.854 543.296H664.076L664.598 542.774V551H662.348ZM673.196 550.982L673.304 549.092C673.388 549.104 673.466 549.116 673.538 549.128C673.61 549.14 673.676 549.146 673.736 549.146C674.108 549.146 674.396 549.032 674.6 548.804C674.804 548.576 674.954 548.27 675.05 547.886C675.158 547.49 675.23 547.052 675.266 546.572C675.314 546.08 675.35 545.588 675.374 545.096L675.536 541.388H683.312V551H681.062V542.684L681.584 543.296H677.012L677.498 542.666L677.372 545.204C677.336 546.056 677.264 546.848 677.156 547.58C677.06 548.3 676.904 548.93 676.688 549.47C676.484 550.01 676.196 550.43 675.824 550.73C675.464 551.03 675.002 551.18 674.438 551.18C674.258 551.18 674.06 551.162 673.844 551.126C673.64 551.09 673.424 551.042 673.196 550.982ZM690.824 551.126C689.756 551.126 688.82 550.916 688.016 550.496C687.224 550.064 686.606 549.476 686.162 548.732C685.73 547.988 685.514 547.142 685.514 546.194C685.514 545.234 685.724 544.388 686.144 543.656C686.576 542.912 687.164 542.33 687.908 541.91C688.664 541.49 689.522 541.28 690.482 541.28C691.418 541.28 692.252 541.484 692.984 541.892C693.716 542.3 694.292 542.876 694.712 543.62C695.132 544.364 695.342 545.24 695.342 546.248C695.342 546.344 695.336 546.452 695.324 546.572C695.324 546.692 695.318 546.806 695.306 546.914H687.296V545.42H694.118L693.236 545.888C693.248 545.336 693.134 544.85 692.894 544.43C692.654 544.01 692.324 543.68 691.904 543.44C691.496 543.2 691.022 543.08 690.482 543.08C689.93 543.08 689.444 543.2 689.024 543.44C688.616 543.68 688.292 544.016 688.052 544.448C687.824 544.868 687.71 545.366 687.71 545.942V546.302C687.71 546.878 687.842 547.388 688.106 547.832C688.37 548.276 688.742 548.618 689.222 548.858C689.702 549.098 690.254 549.218 690.878 549.218C691.418 549.218 691.904 549.134 692.336 548.966C692.768 548.798 693.152 548.534 693.488 548.174L694.694 549.56C694.262 550.064 693.716 550.454 693.056 550.73C692.408 550.994 691.664 551.126 690.824 551.126ZM697.803 551V541.388H700.053V547.724L705.363 541.388H707.415V551H705.165V544.664L699.873 551H697.803ZM702.465 540.254C701.505 540.254 700.767 540.032 700.251 539.588C699.735 539.132 699.471 538.472 699.459 537.608H700.953C700.965 538.04 701.097 538.382 701.349 538.634C701.613 538.886 701.979 539.012 702.447 539.012C702.903 539.012 703.263 538.886 703.527 538.634C703.803 538.382 703.947 538.04 703.959 537.608H705.489C705.477 538.472 705.207 539.132 704.679 539.588C704.163 540.032 703.425 540.254 702.465 540.254ZM714.816 551.126C713.808 551.126 712.908 550.916 712.116 550.496C711.336 550.064 710.724 549.476 710.28 548.732C709.836 547.988 709.614 547.142 709.614 546.194C709.614 545.234 709.836 544.388 710.28 543.656C710.724 542.912 711.336 542.33 712.116 541.91C712.908 541.49 713.808 541.28 714.816 541.28C715.752 541.28 716.574 541.472 717.282 541.856C718.002 542.228 718.548 542.78 718.92 543.512L717.192 544.52C716.904 544.064 716.55 543.728 716.13 543.512C715.722 543.296 715.278 543.188 714.798 543.188C714.246 543.188 713.748 543.308 713.304 543.548C712.86 543.788 712.512 544.136 712.26 544.592C712.008 545.036 711.882 545.57 711.882 546.194C711.882 546.818 712.008 547.358 712.26 547.814C712.512 548.258 712.86 548.6 713.304 548.84C713.748 549.08 714.246 549.2 714.798 549.2C715.278 549.2 715.722 549.092 716.13 548.876C716.55 548.66 716.904 548.324 717.192 547.868L718.92 548.876C718.548 549.596 718.002 550.154 717.282 550.55C716.574 550.934 715.752 551.126 714.816 551.126ZM726.733 551V549.056L726.607 548.642V545.24C726.607 544.58 726.409 544.07 726.013 543.71C725.617 543.338 725.017 543.152 724.213 543.152C723.673 543.152 723.139 543.236 722.611 543.404C722.095 543.572 721.657 543.806 721.297 544.106L720.415 542.468C720.931 542.072 721.543 541.778 722.251 541.586C722.971 541.382 723.715 541.28 724.483 541.28C725.875 541.28 726.949 541.616 727.705 542.288C728.473 542.948 728.857 543.974 728.857 545.366V551H726.733ZM723.709 551.126C722.989 551.126 722.359 551.006 721.819 550.766C721.279 550.514 720.859 550.172 720.559 549.74C720.271 549.296 720.127 548.798 720.127 548.246C720.127 547.706 720.253 547.22 720.505 546.788C720.769 546.356 721.195 546.014 721.783 545.762C722.371 545.51 723.151 545.384 724.123 545.384H726.913V546.878H724.285C723.517 546.878 723.001 547.004 722.737 547.256C722.473 547.496 722.341 547.796 722.341 548.156C722.341 548.564 722.503 548.888 722.827 549.128C723.151 549.368 723.601 549.488 724.177 549.488C724.729 549.488 725.221 549.362 725.653 549.11C726.097 548.858 726.415 548.486 726.607 547.994L726.985 549.344C726.769 549.908 726.379 550.346 725.815 550.658C725.263 550.97 724.561 551.126 723.709 551.126Z" fill="#2F2F2F"/>
<path opacity="0.2" d="M760.542 551.126C759.973 551.126 759.408 551.061 758.848 550.93C758.297 550.79 757.798 550.594 757.35 550.342L757.84 549.04C758.204 549.245 758.615 549.404 759.072 549.516C759.529 549.628 759.987 549.684 760.444 549.684C760.836 549.684 761.172 549.647 761.452 549.572C761.732 549.488 761.947 549.367 762.096 549.208C762.255 549.049 762.334 548.867 762.334 548.662C762.334 548.363 762.203 548.139 761.942 547.99C761.69 547.831 761.326 547.752 760.85 547.752H759.408V546.576H760.71C761.009 546.576 761.261 546.543 761.466 546.478C761.681 546.413 761.844 546.315 761.956 546.184C762.068 546.053 762.124 545.899 762.124 545.722C762.124 545.545 762.054 545.391 761.914 545.26C761.783 545.12 761.592 545.017 761.34 544.952C761.088 544.877 760.785 544.84 760.43 544.84C760.057 544.84 759.669 544.887 759.268 544.98C758.876 545.073 758.475 545.209 758.064 545.386L757.616 544.098C758.092 543.883 758.554 543.72 759.002 543.608C759.459 543.487 759.912 543.421 760.36 543.412C761.041 543.384 761.648 543.454 762.18 543.622C762.712 543.79 763.132 544.033 763.44 544.35C763.748 544.667 763.902 545.041 763.902 545.47C763.902 545.825 763.79 546.147 763.566 546.436C763.351 546.716 763.053 546.935 762.67 547.094C762.297 547.253 761.867 547.332 761.382 547.332L761.438 546.954C762.269 546.954 762.922 547.122 763.398 547.458C763.874 547.785 764.112 548.233 764.112 548.802C764.112 549.259 763.958 549.665 763.65 550.02C763.342 550.365 762.917 550.636 762.376 550.832C761.844 551.028 761.233 551.126 760.542 551.126ZM770.45 551V549.488L770.352 549.166V546.52C770.352 546.007 770.198 545.61 769.89 545.33C769.582 545.041 769.116 544.896 768.49 544.896C768.07 544.896 767.655 544.961 767.244 545.092C766.843 545.223 766.502 545.405 766.222 545.638L765.536 544.364C765.938 544.056 766.414 543.827 766.964 543.678C767.524 543.519 768.103 543.44 768.7 543.44C769.783 543.44 770.618 543.701 771.206 544.224C771.804 544.737 772.102 545.535 772.102 546.618V551H770.45ZM768.098 551.098C767.538 551.098 767.048 551.005 766.628 550.818C766.208 550.622 765.882 550.356 765.648 550.02C765.424 549.675 765.312 549.287 765.312 548.858C765.312 548.438 765.41 548.06 765.606 547.724C765.812 547.388 766.143 547.122 766.6 546.926C767.058 546.73 767.664 546.632 768.42 546.632H770.59V547.794H768.546C767.949 547.794 767.548 547.892 767.342 548.088C767.137 548.275 767.034 548.508 767.034 548.788C767.034 549.105 767.16 549.357 767.412 549.544C767.664 549.731 768.014 549.824 768.462 549.824C768.892 549.824 769.274 549.726 769.61 549.53C769.956 549.334 770.203 549.045 770.352 548.662L770.646 549.712C770.478 550.151 770.175 550.491 769.736 550.734C769.307 550.977 768.761 551.098 768.098 551.098ZM778.137 551V543.524H783.877V545.008H779.481L779.887 544.616V551H778.137ZM788.154 551.098C787.389 551.098 786.708 550.935 786.11 550.608C785.513 550.272 785.042 549.815 784.696 549.236C784.351 548.657 784.178 547.999 784.178 547.262C784.178 546.515 784.351 545.857 784.696 545.288C785.042 544.709 785.513 544.257 786.11 543.93C786.708 543.603 787.389 543.44 788.154 543.44C788.929 543.44 789.615 543.603 790.212 543.93C790.819 544.257 791.29 544.705 791.626 545.274C791.972 545.843 792.144 546.506 792.144 547.262C792.144 547.999 791.972 548.657 791.626 549.236C791.29 549.815 790.819 550.272 790.212 550.608C789.615 550.935 788.929 551.098 788.154 551.098ZM788.154 549.6C788.584 549.6 788.966 549.507 789.302 549.32C789.638 549.133 789.9 548.863 790.086 548.508C790.282 548.153 790.38 547.738 790.38 547.262C790.38 546.777 790.282 546.361 790.086 546.016C789.9 545.661 789.638 545.391 789.302 545.204C788.966 545.017 788.588 544.924 788.168 544.924C787.739 544.924 787.356 545.017 787.02 545.204C786.694 545.391 786.432 545.661 786.236 546.016C786.04 546.361 785.942 546.777 785.942 547.262C785.942 547.738 786.04 548.153 786.236 548.508C786.432 548.863 786.694 549.133 787.02 549.32C787.356 549.507 787.734 549.6 788.154 549.6ZM798.915 550.188V545.008H796.045L796.003 546.212C795.985 546.641 795.957 547.057 795.919 547.458C795.882 547.85 795.821 548.214 795.737 548.55C795.653 548.877 795.532 549.147 795.373 549.362C795.215 549.577 795.005 549.717 794.743 549.782L793.007 549.516C793.287 549.516 793.511 549.427 793.679 549.25C793.857 549.063 793.992 548.811 794.085 548.494C794.188 548.167 794.263 547.799 794.309 547.388C794.356 546.968 794.389 546.534 794.407 546.086L794.505 543.524H800.665V550.188H798.915ZM792.741 552.666V549.516H801.771V552.666H800.133V551H794.365V552.666H792.741Z" fill="#2F2F2F"/>
<path d="M595.744 591V575.4L597.112 576.816H592.192V574.2H598.864V591H595.744ZM607.861 573.96C609.397 573.96 610.701 574.288 611.773 574.944C612.861 575.584 613.693 576.52 614.269 577.752C614.845 578.984 615.133 580.504 615.133 582.312C615.133 584.232 614.781 585.856 614.077 587.184C613.389 588.512 612.429 589.52 611.197 590.208C609.965 590.896 608.533 591.24 606.901 591.24C606.053 591.24 605.245 591.152 604.477 590.976C603.709 590.8 603.045 590.528 602.485 590.16L603.637 587.808C604.101 588.112 604.605 588.328 605.149 588.456C605.693 588.568 606.253 588.624 606.829 588.624C608.413 588.624 609.669 588.136 610.597 587.16C611.525 586.184 611.989 584.744 611.989 582.84C611.989 582.536 611.981 582.184 611.965 581.784C611.949 581.368 611.893 580.952 611.797 580.536L612.757 581.592C612.485 582.248 612.093 582.8 611.581 583.248C611.069 583.68 610.469 584.008 609.781 584.232C609.093 584.456 608.333 584.568 607.501 584.568C606.413 584.568 605.429 584.36 604.549 583.944C603.685 583.512 602.997 582.912 602.485 582.144C601.973 581.36 601.717 580.448 601.717 579.408C601.717 578.288 601.989 577.328 602.533 576.528C603.077 575.712 603.813 575.08 604.741 574.632C605.685 574.184 606.725 573.96 607.861 573.96ZM608.029 576.408C607.389 576.408 606.821 576.528 606.325 576.768C605.829 576.992 605.437 577.32 605.149 577.752C604.877 578.168 604.741 578.672 604.741 579.264C604.741 580.144 605.045 580.84 605.653 581.352C606.261 581.864 607.077 582.12 608.101 582.12C608.773 582.12 609.365 582 609.877 581.76C610.389 581.504 610.789 581.16 611.077 580.728C611.365 580.28 611.509 579.784 611.509 579.24C611.509 578.712 611.373 578.24 611.101 577.824C610.829 577.392 610.437 577.048 609.925 576.792C609.413 576.536 608.781 576.408 608.029 576.408ZM617.004 587.184V585.024L625.284 574.2H628.62L620.46 585.024L618.9 584.544H632.22V587.184H617.004ZM626.22 591V587.184L626.316 584.544V581.16H629.244V591H626.22ZM639.925 587.184V585.024L648.205 574.2H651.541L643.381 585.024L641.821 584.544H655.141V587.184H639.925ZM649.141 591V587.184L649.237 584.544V581.16H652.165V591H649.141ZM661.523 591.24C660.34 591.24 659.18 591.072 658.044 590.736C656.924 590.384 655.98 589.904 655.212 589.296L656.556 586.872C657.164 587.368 657.9 587.768 658.764 588.072C659.628 588.376 660.532 588.528 661.476 588.528C662.596 588.528 663.468 588.304 664.092 587.856C664.716 587.392 665.028 586.768 665.028 585.984C665.028 585.216 664.74 584.608 664.164 584.16C663.588 583.712 662.66 583.488 661.38 583.488H659.844V581.352L664.644 575.64L665.052 576.816H656.028V574.2H667.476V576.288L662.676 582L661.044 581.04H661.98C664.044 581.04 665.588 581.504 666.612 582.432C667.652 583.344 668.172 584.52 668.172 585.96C668.172 586.904 667.932 587.776 667.452 588.576C666.972 589.376 666.236 590.024 665.244 590.52C664.268 591 663.028 591.24 661.523 591.24ZM669.879 591V588.912L676.551 582.576C677.111 582.048 677.527 581.584 677.799 581.184C678.071 580.784 678.247 580.416 678.327 580.08C678.423 579.728 678.471 579.4 678.471 579.096C678.471 578.328 678.207 577.736 677.679 577.32C677.151 576.888 676.375 576.672 675.351 576.672C674.535 576.672 673.791 576.816 673.119 577.104C672.463 577.392 671.895 577.832 671.415 578.424L669.231 576.744C669.887 575.864 670.767 575.184 671.871 574.704C672.991 574.208 674.239 573.96 675.615 573.96C676.831 573.96 677.887 574.16 678.783 574.56C679.695 574.944 680.391 575.496 680.871 576.216C681.367 576.936 681.615 577.792 681.615 578.784C681.615 579.328 681.543 579.872 681.399 580.416C681.255 580.944 680.983 581.504 680.583 582.096C680.183 582.688 679.599 583.352 678.831 584.088L673.095 589.536L672.447 588.36H682.263V591H669.879ZM692.761 591V574.2H699.673C701.881 574.2 703.617 574.68 704.881 575.64C706.161 576.584 706.801 577.984 706.801 579.84C706.801 581.68 706.161 583.08 704.881 584.04C703.617 584.984 701.881 585.456 699.673 585.456H694.489L695.881 584.016V591H692.761ZM695.881 584.352L694.489 582.936H699.649C700.929 582.936 701.913 582.672 702.601 582.144C703.305 581.6 703.657 580.84 703.657 579.864C703.657 578.888 703.305 578.144 702.601 577.632C701.913 577.104 700.929 576.84 699.649 576.84H694.489L695.881 575.304V584.352ZM690.361 588.504V586.824H701.161V588.504H690.361Z" fill="#2F2F2F"/>
</g>
<g opacity="0.9">
<g filter="url(#filter1_bd_1_14329)">
<rect x="106" y="413" width="229" height="116" rx="12" fill="url(#paint1_linear_1_14329)"/>
<rect x="106" y="413" width="229" height="116" rx="12" fill="white" fill-opacity="0.9"/>
</g>
<path  d="M117.782 440V427.4H128.924V440H126.62V428.804L127.16 429.38H119.546L120.086 428.804V440H117.782ZM137.553 440.126C136.773 440.126 136.059 439.946 135.411 439.586C134.775 439.226 134.265 438.686 133.881 437.966C133.509 437.234 133.323 436.31 133.323 435.194C133.323 434.066 133.503 433.142 133.863 432.422C134.235 431.702 134.739 431.168 135.375 430.82C136.011 430.46 136.737 430.28 137.553 430.28C138.501 430.28 139.335 430.484 140.055 430.892C140.787 431.3 141.363 431.87 141.783 432.602C142.215 433.334 142.431 434.198 142.431 435.194C142.431 436.19 142.215 437.06 141.783 437.804C141.363 438.536 140.787 439.106 140.055 439.514C139.335 439.922 138.501 440.126 137.553 440.126ZM132.225 443.492V430.388H134.367V432.656L134.295 435.212L134.475 437.768V443.492H132.225ZM137.301 438.2C137.841 438.2 138.321 438.08 138.741 437.84C139.173 437.6 139.515 437.252 139.767 436.796C140.019 436.34 140.145 435.806 140.145 435.194C140.145 434.57 140.019 434.036 139.767 433.592C139.515 433.136 139.173 432.788 138.741 432.548C138.321 432.308 137.841 432.188 137.301 432.188C136.761 432.188 136.275 432.308 135.843 432.548C135.411 432.788 135.069 433.136 134.817 433.592C134.565 434.036 134.439 434.57 134.439 435.194C134.439 435.806 134.565 436.34 134.817 436.796C135.069 437.252 135.411 437.6 135.843 437.84C136.275 438.08 136.761 438.2 137.301 438.2ZM148.954 440.126C147.97 440.126 147.094 439.916 146.326 439.496C145.558 439.064 144.952 438.476 144.508 437.732C144.064 436.988 143.842 436.142 143.842 435.194C143.842 434.234 144.064 433.388 144.508 432.656C144.952 431.912 145.558 431.33 146.326 430.91C147.094 430.49 147.97 430.28 148.954 430.28C149.95 430.28 150.832 430.49 151.6 430.91C152.38 431.33 152.986 431.906 153.418 432.638C153.862 433.37 154.084 434.222 154.084 435.194C154.084 436.142 153.862 436.988 153.418 437.732C152.986 438.476 152.38 439.064 151.6 439.496C150.832 439.916 149.95 440.126 148.954 440.126ZM148.954 438.2C149.506 438.2 149.998 438.08 150.43 437.84C150.862 437.6 151.198 437.252 151.438 436.796C151.69 436.34 151.816 435.806 151.816 435.194C151.816 434.57 151.69 434.036 151.438 433.592C151.198 433.136 150.862 432.788 150.43 432.548C149.998 432.308 149.512 432.188 148.972 432.188C148.42 432.188 147.928 432.308 147.496 432.548C147.076 432.788 146.74 433.136 146.488 433.592C146.236 434.036 146.11 434.57 146.11 435.194C146.11 435.806 146.236 436.34 146.488 436.796C146.74 437.252 147.076 437.6 147.496 437.84C147.928 438.08 148.414 438.2 148.954 438.2ZM162.373 436.202C161.917 436.418 161.431 436.598 160.915 436.742C160.411 436.874 159.877 436.94 159.313 436.94C158.101 436.94 157.159 436.658 156.487 436.094C155.815 435.53 155.479 434.654 155.479 433.466V430.388H157.729V433.322C157.729 433.958 157.909 434.42 158.269 434.708C158.641 434.996 159.151 435.14 159.799 435.14C160.231 435.14 160.663 435.086 161.095 434.978C161.527 434.87 161.953 434.72 162.373 434.528V436.202ZM162.211 440V430.388H164.461V440H162.211ZM167.487 440V430.388H169.737V436.724L175.047 430.388H177.099V440H174.849V433.664L169.557 440H167.487ZM184.607 440.126C183.539 440.126 182.603 439.916 181.799 439.496C181.007 439.064 180.389 438.476 179.945 437.732C179.513 436.988 179.297 436.142 179.297 435.194C179.297 434.234 179.507 433.388 179.927 432.656C180.359 431.912 180.947 431.33 181.691 430.91C182.447 430.49 183.305 430.28 184.265 430.28C185.201 430.28 186.035 430.484 186.767 430.892C187.499 431.3 188.075 431.876 188.495 432.62C188.915 433.364 189.125 434.24 189.125 435.248C189.125 435.344 189.119 435.452 189.107 435.572C189.107 435.692 189.101 435.806 189.089 435.914H181.079V434.42H187.901L187.019 434.888C187.031 434.336 186.917 433.85 186.677 433.43C186.437 433.01 186.107 432.68 185.687 432.44C185.279 432.2 184.805 432.08 184.265 432.08C183.713 432.08 183.227 432.2 182.807 432.44C182.399 432.68 182.075 433.016 181.835 433.448C181.607 433.868 181.493 434.366 181.493 434.942V435.302C181.493 435.878 181.625 436.388 181.889 436.832C182.153 437.276 182.525 437.618 183.005 437.858C183.485 438.098 184.037 438.218 184.661 438.218C185.201 438.218 185.687 438.134 186.119 437.966C186.551 437.798 186.935 437.534 187.271 437.174L188.477 438.56C188.045 439.064 187.499 439.454 186.839 439.73C186.191 439.994 185.447 440.126 184.607 440.126ZM201.889 440.126C201.109 440.126 200.395 439.946 199.747 439.586C199.111 439.226 198.601 438.686 198.217 437.966C197.845 437.234 197.659 436.31 197.659 435.194C197.659 434.066 197.839 433.142 198.199 432.422C198.571 431.702 199.075 431.168 199.711 430.82C200.347 430.46 201.073 430.28 201.889 430.28C202.837 430.28 203.671 430.484 204.391 430.892C205.123 431.3 205.699 431.87 206.119 432.602C206.551 433.334 206.767 434.198 206.767 435.194C206.767 436.19 206.551 437.06 206.119 437.804C205.699 438.536 205.123 439.106 204.391 439.514C203.671 439.922 202.837 440.126 201.889 440.126ZM196.561 443.492V430.388H198.703V432.656L198.631 435.212L198.811 437.768V443.492H196.561ZM201.637 438.2C202.177 438.2 202.657 438.08 203.077 437.84C203.509 437.6 203.851 437.252 204.103 436.796C204.355 436.34 204.481 435.806 204.481 435.194C204.481 434.57 204.355 434.036 204.103 433.592C203.851 433.136 203.509 432.788 203.077 432.548C202.657 432.308 202.177 432.188 201.637 432.188C201.097 432.188 200.611 432.308 200.179 432.548C199.747 432.788 199.405 433.136 199.153 433.592C198.901 434.036 198.775 434.57 198.775 435.194C198.775 435.806 198.901 436.34 199.153 436.796C199.405 437.252 199.747 437.6 200.179 437.84C200.611 438.08 201.097 438.2 201.637 438.2ZM214.715 440V438.056L214.589 437.642V434.24C214.589 433.58 214.391 433.07 213.995 432.71C213.599 432.338 212.999 432.152 212.195 432.152C211.655 432.152 211.121 432.236 210.593 432.404C210.077 432.572 209.639 432.806 209.279 433.106L208.397 431.468C208.913 431.072 209.525 430.778 210.233 430.586C210.953 430.382 211.697 430.28 212.465 430.28C213.857 430.28 214.931 430.616 215.687 431.288C216.455 431.948 216.839 432.974 216.839 434.366V440H214.715ZM211.691 440.126C210.971 440.126 210.341 440.006 209.801 439.766C209.261 439.514 208.841 439.172 208.541 438.74C208.253 438.296 208.109 437.798 208.109 437.246C208.109 436.706 208.235 436.22 208.487 435.788C208.751 435.356 209.177 435.014 209.765 434.762C210.353 434.51 211.133 434.384 212.105 434.384H214.895V435.878H212.267C211.499 435.878 210.983 436.004 210.719 436.256C210.455 436.496 210.323 436.796 210.323 437.156C210.323 437.564 210.485 437.888 210.809 438.128C211.133 438.368 211.583 438.488 212.159 438.488C212.711 438.488 213.203 438.362 213.635 438.11C214.079 437.858 214.397 437.486 214.589 436.994L214.967 438.344C214.751 438.908 214.361 439.346 213.797 439.658C213.245 439.97 212.543 440.126 211.691 440.126ZM223.997 440.126C222.989 440.126 222.089 439.916 221.297 439.496C220.517 439.064 219.905 438.476 219.461 437.732C219.017 436.988 218.795 436.142 218.795 435.194C218.795 434.234 219.017 433.388 219.461 432.656C219.905 431.912 220.517 431.33 221.297 430.91C222.089 430.49 222.989 430.28 223.997 430.28C224.933 430.28 225.755 430.472 226.463 430.856C227.183 431.228 227.729 431.78 228.101 432.512L226.373 433.52C226.085 433.064 225.731 432.728 225.311 432.512C224.903 432.296 224.459 432.188 223.979 432.188C223.427 432.188 222.929 432.308 222.485 432.548C222.041 432.788 221.693 433.136 221.441 433.592C221.189 434.036 221.063 434.57 221.063 435.194C221.063 435.818 221.189 436.358 221.441 436.814C221.693 437.258 222.041 437.6 222.485 437.84C222.929 438.08 223.427 438.2 223.979 438.2C224.459 438.2 224.903 438.092 225.311 437.876C225.731 437.66 226.085 437.324 226.373 436.868L228.101 437.876C227.729 438.596 227.183 439.154 226.463 439.55C225.755 439.934 224.933 440.126 223.997 440.126ZM228.397 440L232.627 434.492L232.591 435.698L228.559 430.388H231.061L233.887 434.168H232.933L235.777 430.388H238.207L234.139 435.698L234.157 434.492L238.369 440H235.831L232.861 435.986L233.797 436.112L230.881 440H228.397ZM243.946 440.126C242.962 440.126 242.086 439.916 241.318 439.496C240.55 439.064 239.944 438.476 239.5 437.732C239.056 436.988 238.834 436.142 238.834 435.194C238.834 434.234 239.056 433.388 239.5 432.656C239.944 431.912 240.55 431.33 241.318 430.91C242.086 430.49 242.962 430.28 243.946 430.28C244.942 430.28 245.824 430.49 246.592 430.91C247.372 431.33 247.978 431.906 248.41 432.638C248.854 433.37 249.076 434.222 249.076 435.194C249.076 436.142 248.854 436.988 248.41 437.732C247.978 438.476 247.372 439.064 246.592 439.496C245.824 439.916 244.942 440.126 243.946 440.126ZM243.946 438.2C244.498 438.2 244.99 438.08 245.422 437.84C245.854 437.6 246.19 437.252 246.43 436.796C246.682 436.34 246.808 435.806 246.808 435.194C246.808 434.57 246.682 434.036 246.43 433.592C246.19 433.136 245.854 432.788 245.422 432.548C244.99 432.308 244.504 432.188 243.964 432.188C243.412 432.188 242.92 432.308 242.488 432.548C242.068 432.788 241.732 433.136 241.48 433.592C241.228 434.036 241.102 434.57 241.102 435.194C241.102 435.806 241.228 436.34 241.48 436.796C241.732 437.252 242.068 437.6 242.488 437.84C242.92 438.08 243.406 438.2 243.946 438.2ZM257.782 438.956V432.296H254.092L254.038 433.844C254.014 434.396 253.978 434.93 253.93 435.446C253.882 435.95 253.804 436.418 253.696 436.85C253.588 437.27 253.432 437.618 253.228 437.894C253.024 438.17 252.754 438.35 252.418 438.434L250.186 438.092C250.546 438.092 250.834 437.978 251.05 437.75C251.278 437.51 251.452 437.186 251.572 436.778C251.704 436.358 251.8 435.884 251.86 435.356C251.92 434.816 251.962 434.258 251.986 433.682L252.112 430.388H260.032V438.956H257.782ZM249.844 442.142V438.092H261.454V442.142H259.348V440H251.932V442.142H249.844ZM273.165 440V430.388H275.415V440H273.165ZM268.143 433.556C269.379 433.556 270.315 433.832 270.951 434.384C271.599 434.936 271.923 435.716 271.923 436.724C271.923 437.768 271.563 438.584 270.843 439.172C270.135 439.748 269.127 440.03 267.819 440.018L263.463 440V430.388H265.713V433.538L268.143 433.556ZM267.621 438.362C268.281 438.374 268.785 438.236 269.133 437.948C269.481 437.66 269.655 437.24 269.655 436.688C269.655 436.136 269.481 435.74 269.133 435.5C268.797 435.248 268.293 435.116 267.621 435.104L265.713 435.086V438.344L267.621 438.362Z" fill="#2F2F2F"/>
<path opacity="0.2" d="M119.542 457.126C118.973 457.126 118.408 457.061 117.848 456.93C117.297 456.79 116.798 456.594 116.35 456.342L116.84 455.04C117.204 455.245 117.615 455.404 118.072 455.516C118.529 455.628 118.987 455.684 119.444 455.684C119.836 455.684 120.172 455.647 120.452 455.572C120.732 455.488 120.947 455.367 121.096 455.208C121.255 455.049 121.334 454.867 121.334 454.662C121.334 454.363 121.203 454.139 120.942 453.99C120.69 453.831 120.326 453.752 119.85 453.752H118.408V452.576H119.71C120.009 452.576 120.261 452.543 120.466 452.478C120.681 452.413 120.844 452.315 120.956 452.184C121.068 452.053 121.124 451.899 121.124 451.722C121.124 451.545 121.054 451.391 120.914 451.26C120.783 451.12 120.592 451.017 120.34 450.952C120.088 450.877 119.785 450.84 119.43 450.84C119.057 450.84 118.669 450.887 118.268 450.98C117.876 451.073 117.475 451.209 117.064 451.386L116.616 450.098C117.092 449.883 117.554 449.72 118.002 449.608C118.459 449.487 118.912 449.421 119.36 449.412C120.041 449.384 120.648 449.454 121.18 449.622C121.712 449.79 122.132 450.033 122.44 450.35C122.748 450.667 122.902 451.041 122.902 451.47C122.902 451.825 122.79 452.147 122.566 452.436C122.351 452.716 122.053 452.935 121.67 453.094C121.297 453.253 120.867 453.332 120.382 453.332L120.438 452.954C121.269 452.954 121.922 453.122 122.398 453.458C122.874 453.785 123.112 454.233 123.112 454.802C123.112 455.259 122.958 455.665 122.65 456.02C122.342 456.365 121.917 456.636 121.376 456.832C120.844 457.028 120.233 457.126 119.542 457.126ZM129.45 457V455.488L129.352 455.166V452.52C129.352 452.007 129.198 451.61 128.89 451.33C128.582 451.041 128.116 450.896 127.49 450.896C127.07 450.896 126.655 450.961 126.244 451.092C125.843 451.223 125.502 451.405 125.222 451.638L124.536 450.364C124.938 450.056 125.414 449.827 125.964 449.678C126.524 449.519 127.103 449.44 127.7 449.44C128.783 449.44 129.618 449.701 130.206 450.224C130.804 450.737 131.102 451.535 131.102 452.618V457H129.45ZM127.098 457.098C126.538 457.098 126.048 457.005 125.628 456.818C125.208 456.622 124.882 456.356 124.648 456.02C124.424 455.675 124.312 455.287 124.312 454.858C124.312 454.438 124.41 454.06 124.606 453.724C124.812 453.388 125.143 453.122 125.6 452.926C126.058 452.73 126.664 452.632 127.42 452.632H129.59V453.794H127.546C126.949 453.794 126.548 453.892 126.342 454.088C126.137 454.275 126.034 454.508 126.034 454.788C126.034 455.105 126.16 455.357 126.412 455.544C126.664 455.731 127.014 455.824 127.462 455.824C127.892 455.824 128.274 455.726 128.61 455.53C128.956 455.334 129.203 455.045 129.352 454.662L129.646 455.712C129.478 456.151 129.175 456.491 128.736 456.734C128.307 456.977 127.761 457.098 127.098 457.098ZM137.137 457V449.524H142.877V451.008H138.481L138.887 450.616V457H137.137ZM147.154 457.098C146.389 457.098 145.708 456.935 145.11 456.608C144.513 456.272 144.042 455.815 143.696 455.236C143.351 454.657 143.178 453.999 143.178 453.262C143.178 452.515 143.351 451.857 143.696 451.288C144.042 450.709 144.513 450.257 145.11 449.93C145.708 449.603 146.389 449.44 147.154 449.44C147.929 449.44 148.615 449.603 149.212 449.93C149.819 450.257 150.29 450.705 150.626 451.274C150.972 451.843 151.144 452.506 151.144 453.262C151.144 453.999 150.972 454.657 150.626 455.236C150.29 455.815 149.819 456.272 149.212 456.608C148.615 456.935 147.929 457.098 147.154 457.098ZM147.154 455.6C147.584 455.6 147.966 455.507 148.302 455.32C148.638 455.133 148.9 454.863 149.086 454.508C149.282 454.153 149.38 453.738 149.38 453.262C149.38 452.777 149.282 452.361 149.086 452.016C148.9 451.661 148.638 451.391 148.302 451.204C147.966 451.017 147.588 450.924 147.168 450.924C146.739 450.924 146.356 451.017 146.02 451.204C145.694 451.391 145.432 451.661 145.236 452.016C145.04 452.361 144.942 452.777 144.942 453.262C144.942 453.738 145.04 454.153 145.236 454.508C145.432 454.863 145.694 455.133 146.02 455.32C146.356 455.507 146.734 455.6 147.154 455.6ZM157.915 456.188V451.008H155.045L155.003 452.212C154.985 452.641 154.957 453.057 154.919 453.458C154.882 453.85 154.821 454.214 154.737 454.55C154.653 454.877 154.532 455.147 154.373 455.362C154.215 455.577 154.005 455.717 153.743 455.782L152.007 455.516C152.287 455.516 152.511 455.427 152.679 455.25C152.857 455.063 152.992 454.811 153.085 454.494C153.188 454.167 153.263 453.799 153.309 453.388C153.356 452.968 153.389 452.534 153.407 452.086L153.505 449.524H159.665V456.188H157.915ZM151.741 458.666V455.516H160.771V458.666H159.133V457H153.365V458.666H151.741Z" fill="#2F2F2F"/>
<path d="M122.336 502.24C121.152 502.24 119.992 502.072 118.856 501.736C117.736 501.384 116.792 500.904 116.024 500.296L117.368 497.872C117.976 498.368 118.712 498.768 119.576 499.072C120.44 499.376 121.344 499.528 122.288 499.528C123.408 499.528 124.28 499.304 124.904 498.856C125.528 498.392 125.84 497.768 125.84 496.984C125.84 496.216 125.552 495.608 124.976 495.16C124.4 494.712 123.472 494.488 122.192 494.488H120.656V492.352L125.456 486.64L125.864 487.816H116.84V485.2H128.288V487.288L123.488 493L121.856 492.04H122.792C124.856 492.04 126.4 492.504 127.424 493.432C128.464 494.344 128.984 495.52 128.984 496.96C128.984 497.904 128.744 498.776 128.264 499.576C127.784 500.376 127.048 501.024 126.056 501.52C125.08 502 123.84 502.24 122.336 502.24ZM130.692 502V499.912L137.364 493.576C137.924 493.048 138.34 492.584 138.612 492.184C138.884 491.784 139.06 491.416 139.14 491.08C139.236 490.728 139.284 490.4 139.284 490.096C139.284 489.328 139.02 488.736 138.492 488.32C137.964 487.888 137.188 487.672 136.164 487.672C135.348 487.672 134.604 487.816 133.932 488.104C133.276 488.392 132.708 488.832 132.228 489.424L130.044 487.744C130.7 486.864 131.58 486.184 132.684 485.704C133.804 485.208 135.052 484.96 136.428 484.96C137.644 484.96 138.7 485.16 139.596 485.56C140.508 485.944 141.204 486.496 141.684 487.216C142.18 487.936 142.428 488.792 142.428 489.784C142.428 490.328 142.356 490.872 142.212 491.416C142.068 491.944 141.796 492.504 141.396 493.096C140.996 493.688 140.412 494.352 139.644 495.088L133.908 500.536L133.26 499.36H143.076V502H130.692ZM147.564 502V486.4L148.932 487.816H144.012V485.2H150.684V502H147.564ZM160.41 498.184V496.024L168.69 485.2H172.026L163.866 496.024L162.306 495.544H175.626V498.184H160.41ZM169.626 502V498.184L169.722 495.544V492.16H172.65V502H169.626ZM176.723 502V499.912L183.395 493.576C183.955 493.048 184.371 492.584 184.643 492.184C184.915 491.784 185.091 491.416 185.171 491.08C185.267 490.728 185.315 490.4 185.315 490.096C185.315 489.328 185.051 488.736 184.523 488.32C183.995 487.888 183.219 487.672 182.195 487.672C181.379 487.672 180.635 487.816 179.963 488.104C179.307 488.392 178.739 488.832 178.259 489.424L176.075 487.744C176.731 486.864 177.611 486.184 178.715 485.704C179.835 485.208 181.083 484.96 182.459 484.96C183.675 484.96 184.731 485.16 185.627 485.56C186.539 485.944 187.235 486.496 187.715 487.216C188.211 487.936 188.459 488.792 188.459 489.784C188.459 490.328 188.387 490.872 188.243 491.416C188.099 491.944 187.827 492.504 187.427 493.096C187.027 493.688 186.443 494.352 185.675 495.088L179.939 500.536L179.291 499.36H189.107V502H176.723ZM190.316 498.184V496.024L198.596 485.2H201.932L193.772 496.024L192.212 495.544H205.532V498.184H190.316ZM199.532 502V498.184L199.628 495.544V492.16H202.556V502H199.532ZM215.542 502V485.2H222.454C224.662 485.2 226.398 485.68 227.662 486.64C228.942 487.584 229.582 488.984 229.582 490.84C229.582 492.68 228.942 494.08 227.662 495.04C226.398 495.984 224.662 496.456 222.454 496.456H217.27L218.662 495.016V502H215.542ZM218.662 495.352L217.27 493.936H222.43C223.71 493.936 224.694 493.672 225.382 493.144C226.086 492.6 226.438 491.84 226.438 490.864C226.438 489.888 226.086 489.144 225.382 488.632C224.694 488.104 223.71 487.84 222.43 487.84H217.27L218.662 486.304V495.352ZM213.142 499.504V497.824H223.942V499.504H213.142Z" fill="#2F2F2F"/>
</g>
<g opacity="0.9">
<g filter="url(#filter2_bd_1_14329)">
<rect x="340" y="301" width="247" height="116" rx="12" fill="url(#paint2_linear_1_14329)"/>
<rect x="340" y="301" width="247" height="116" rx="12" fill="white" fill-opacity="0.9"/>
<rect x="340.5" y="301.5" width="246" height="115" rx="11.5" stroke="url(#paint3_linear_1_14329)"/>
</g>
<path d="M360.416 323.104C359.756 323.38 359.114 323.584 358.49 323.716C357.866 323.848 357.26 323.914 356.672 323.914C355.064 323.914 353.822 323.53 352.946 322.762C352.082 321.982 351.65 320.866 351.65 319.414V315.4H353.972V319.162C353.972 320.05 354.23 320.728 354.746 321.196C355.262 321.664 356 321.898 356.96 321.898C357.536 321.898 358.112 321.832 358.688 321.7C359.276 321.568 359.84 321.364 360.38 321.088L360.416 323.104ZM360.056 328V315.4H362.378V328H360.056ZM365.658 328V318.388H367.908V324.724L373.218 318.388H375.27V328H373.02V321.664L367.728 328H365.658ZM382.67 328.126C381.662 328.126 380.762 327.916 379.97 327.496C379.19 327.064 378.578 326.476 378.134 325.732C377.69 324.988 377.468 324.142 377.468 323.194C377.468 322.234 377.69 321.388 378.134 320.656C378.578 319.912 379.19 319.33 379.97 318.91C380.762 318.49 381.662 318.28 382.67 318.28C383.606 318.28 384.428 318.472 385.136 318.856C385.856 319.228 386.402 319.78 386.774 320.512L385.046 321.52C384.758 321.064 384.404 320.728 383.984 320.512C383.576 320.296 383.132 320.188 382.652 320.188C382.1 320.188 381.602 320.308 381.158 320.548C380.714 320.788 380.366 321.136 380.114 321.592C379.862 322.036 379.736 322.57 379.736 323.194C379.736 323.818 379.862 324.358 380.114 324.814C380.366 325.258 380.714 325.6 381.158 325.84C381.602 326.08 382.1 326.2 382.652 326.2C383.132 326.2 383.576 326.092 383.984 325.876C384.404 325.66 384.758 325.324 385.046 324.868L386.774 325.876C386.402 326.596 385.856 327.154 385.136 327.55C384.428 327.934 383.606 328.126 382.67 328.126ZM390.683 328V319.756L391.205 320.296H387.299V318.388H396.299V320.296H392.411L392.933 319.756V328H390.683ZM403.763 328V326.056L403.637 325.642V322.24C403.637 321.58 403.439 321.07 403.043 320.71C402.647 320.338 402.047 320.152 401.243 320.152C400.703 320.152 400.169 320.236 399.641 320.404C399.125 320.572 398.687 320.806 398.327 321.106L397.445 319.468C397.961 319.072 398.573 318.778 399.281 318.586C400.001 318.382 400.745 318.28 401.513 318.28C402.905 318.28 403.979 318.616 404.735 319.288C405.503 319.948 405.887 320.974 405.887 322.366V328H403.763ZM400.739 328.126C400.019 328.126 399.389 328.006 398.849 327.766C398.309 327.514 397.889 327.172 397.589 326.74C397.301 326.296 397.157 325.798 397.157 325.246C397.157 324.706 397.283 324.22 397.535 323.788C397.799 323.356 398.225 323.014 398.813 322.762C399.401 322.51 400.181 322.384 401.153 322.384H403.943V323.878H401.315C400.547 323.878 400.031 324.004 399.767 324.256C399.503 324.496 399.371 324.796 399.371 325.156C399.371 325.564 399.533 325.888 399.857 326.128C400.181 326.368 400.631 326.488 401.207 326.488C401.759 326.488 402.251 326.362 402.683 326.11C403.127 325.858 403.445 325.486 403.637 324.994L404.015 326.344C403.799 326.908 403.409 327.346 402.845 327.658C402.293 327.97 401.591 328.126 400.739 328.126ZM414.773 328V324.724L415.097 325.102H412.217C410.897 325.102 409.859 324.826 409.103 324.274C408.359 323.71 407.987 322.9 407.987 321.844C407.987 320.716 408.383 319.858 409.175 319.27C409.979 318.682 411.047 318.388 412.379 318.388H416.789V328H414.773ZM407.861 328L410.453 324.328H412.757L410.273 328H407.861ZM414.773 324.004V319.684L415.097 320.278H412.451C411.755 320.278 411.215 320.41 410.831 320.674C410.459 320.926 410.273 321.34 410.273 321.916C410.273 322.996 410.975 323.536 412.379 323.536H415.097L414.773 324.004ZM424.79 328V318.388H434.006V328H431.774V319.774L432.296 320.296H426.518L427.04 319.774V328H424.79ZM442.37 328.126C441.59 328.126 440.876 327.946 440.228 327.586C439.592 327.226 439.082 326.686 438.698 325.966C438.326 325.234 438.14 324.31 438.14 323.194C438.14 322.066 438.32 321.142 438.68 320.422C439.052 319.702 439.556 319.168 440.192 318.82C440.828 318.46 441.554 318.28 442.37 318.28C443.318 318.28 444.152 318.484 444.872 318.892C445.604 319.3 446.18 319.87 446.6 320.602C447.032 321.334 447.248 322.198 447.248 323.194C447.248 324.19 447.032 325.06 446.6 325.804C446.18 326.536 445.604 327.106 444.872 327.514C444.152 327.922 443.318 328.126 442.37 328.126ZM437.042 331.492V318.388H439.184V320.656L439.112 323.212L439.292 325.768V331.492H437.042ZM442.118 326.2C442.658 326.2 443.138 326.08 443.558 325.84C443.99 325.6 444.332 325.252 444.584 324.796C444.836 324.34 444.962 323.806 444.962 323.194C444.962 322.57 444.836 322.036 444.584 321.592C444.332 321.136 443.99 320.788 443.558 320.548C443.138 320.308 442.658 320.188 442.118 320.188C441.578 320.188 441.092 320.308 440.66 320.548C440.228 320.788 439.886 321.136 439.634 321.592C439.382 322.036 439.256 322.57 439.256 323.194C439.256 323.806 439.382 324.34 439.634 324.796C439.886 325.252 440.228 325.6 440.66 325.84C441.092 326.08 441.578 326.2 442.118 326.2ZM449.488 328V318.388H451.738V324.724L457.048 318.388H459.1V328H456.85V321.664L451.558 328H449.488ZM466.716 328.18C465.924 328.18 465.216 328.06 464.592 327.82C463.968 327.58 463.428 327.214 462.972 326.722C462.528 326.218 462.186 325.582 461.946 324.814C461.706 324.046 461.586 323.134 461.586 322.078C461.586 321.31 461.652 320.608 461.784 319.972C461.916 319.336 462.114 318.766 462.378 318.262C462.642 317.746 462.972 317.29 463.368 316.894C463.776 316.498 464.25 316.168 464.79 315.904C465.33 315.64 465.942 315.436 466.626 315.292L471.09 314.338L471.414 316.354L467.364 317.182C467.136 317.23 466.86 317.302 466.536 317.398C466.224 317.482 465.9 317.614 465.564 317.794C465.24 317.962 464.934 318.208 464.646 318.532C464.37 318.844 464.142 319.252 463.962 319.756C463.794 320.248 463.71 320.866 463.71 321.61C463.71 321.838 463.716 322.012 463.728 322.132C463.752 322.24 463.77 322.36 463.782 322.492C463.806 322.612 463.818 322.792 463.818 323.032L462.972 322.15C463.212 321.538 463.542 321.016 463.962 320.584C464.394 320.14 464.892 319.804 465.456 319.576C466.032 319.336 466.656 319.216 467.328 319.216C468.228 319.216 469.026 319.402 469.722 319.774C470.418 320.146 470.964 320.668 471.36 321.34C471.756 322.012 471.954 322.774 471.954 323.626C471.954 324.514 471.738 325.3 471.306 325.984C470.874 326.668 470.262 327.208 469.47 327.604C468.69 327.988 467.772 328.18 466.716 328.18ZM466.896 326.362C467.436 326.362 467.91 326.248 468.318 326.02C468.738 325.78 469.062 325.456 469.29 325.048C469.53 324.64 469.65 324.184 469.65 323.68C469.65 323.176 469.53 322.738 469.29 322.366C469.062 321.982 468.738 321.676 468.318 321.448C467.91 321.22 467.424 321.106 466.86 321.106C466.32 321.106 465.834 321.214 465.402 321.43C464.982 321.646 464.652 321.946 464.412 322.33C464.184 322.702 464.07 323.134 464.07 323.626C464.07 324.13 464.19 324.592 464.43 325.012C464.67 325.432 465 325.762 465.42 326.002C465.852 326.242 466.344 326.362 466.896 326.362ZM483.834 328V318.388H486.084V328H483.834ZM478.812 321.556C480.048 321.556 480.984 321.832 481.62 322.384C482.268 322.936 482.592 323.716 482.592 324.724C482.592 325.768 482.232 326.584 481.512 327.172C480.804 327.748 479.796 328.03 478.488 328.018L474.132 328V318.388H476.382V321.538L478.812 321.556ZM478.29 326.362C478.95 326.374 479.454 326.236 479.802 325.948C480.15 325.66 480.324 325.24 480.324 324.688C480.324 324.136 480.15 323.74 479.802 323.5C479.466 323.248 478.962 323.116 478.29 323.104L476.382 323.086V326.344L478.29 326.362ZM487.705 327.982L487.813 326.092C487.897 326.104 487.975 326.116 488.047 326.128C488.119 326.14 488.185 326.146 488.245 326.146C488.617 326.146 488.905 326.032 489.109 325.804C489.313 325.576 489.463 325.27 489.559 324.886C489.667 324.49 489.739 324.052 489.775 323.572C489.823 323.08 489.859 322.588 489.883 322.096L490.045 318.388H497.821V328H495.571V319.684L496.093 320.296H491.521L492.007 319.666L491.881 322.204C491.845 323.056 491.773 323.848 491.665 324.58C491.569 325.3 491.413 325.93 491.197 326.47C490.993 327.01 490.705 327.43 490.333 327.73C489.973 328.03 489.511 328.18 488.947 328.18C488.767 328.18 488.569 328.162 488.353 328.126C488.149 328.09 487.933 328.042 487.705 327.982ZM505.675 321.556C506.911 321.556 507.853 321.832 508.501 322.384C509.149 322.936 509.473 323.716 509.473 324.724C509.473 325.768 509.113 326.584 508.393 327.172C507.673 327.748 506.659 328.03 505.351 328.018L500.851 328V318.388H503.101V321.538L505.675 321.556ZM505.153 326.362C505.813 326.374 506.317 326.236 506.665 325.948C507.013 325.66 507.187 325.24 507.187 324.688C507.187 324.136 507.013 323.74 506.665 323.5C506.329 323.248 505.825 323.116 505.153 323.104L503.101 323.086V326.344L505.153 326.362Z" fill="#2F2F2F"/>
<path opacity="0.2" d="M354.328 345.126C353.759 345.126 353.194 345.061 352.634 344.93C352.083 344.79 351.584 344.594 351.136 344.342L351.626 343.04C351.99 343.245 352.401 343.404 352.858 343.516C353.315 343.628 353.773 343.684 354.23 343.684C354.622 343.684 354.958 343.647 355.238 343.572C355.518 343.488 355.733 343.367 355.882 343.208C356.041 343.049 356.12 342.867 356.12 342.662C356.12 342.363 355.989 342.139 355.728 341.99C355.476 341.831 355.112 341.752 354.636 341.752H353.194V340.576H354.496C354.795 340.576 355.047 340.543 355.252 340.478C355.467 340.413 355.63 340.315 355.742 340.184C355.854 340.053 355.91 339.899 355.91 339.722C355.91 339.545 355.84 339.391 355.7 339.26C355.569 339.12 355.378 339.017 355.126 338.952C354.874 338.877 354.571 338.84 354.216 338.84C353.843 338.84 353.455 338.887 353.054 338.98C352.662 339.073 352.261 339.209 351.85 339.386L351.402 338.098C351.878 337.883 352.34 337.72 352.788 337.608C353.245 337.487 353.698 337.421 354.146 337.412C354.827 337.384 355.434 337.454 355.966 337.622C356.498 337.79 356.918 338.033 357.226 338.35C357.534 338.667 357.688 339.041 357.688 339.47C357.688 339.825 357.576 340.147 357.352 340.436C357.137 340.716 356.839 340.935 356.456 341.094C356.083 341.253 355.653 341.332 355.168 341.332L355.224 340.954C356.055 340.954 356.708 341.122 357.184 341.458C357.66 341.785 357.898 342.233 357.898 342.802C357.898 343.259 357.744 343.665 357.436 344.02C357.128 344.365 356.703 344.636 356.162 344.832C355.63 345.028 355.019 345.126 354.328 345.126ZM364.236 345V343.488L364.138 343.166V340.52C364.138 340.007 363.984 339.61 363.676 339.33C363.368 339.041 362.902 338.896 362.276 338.896C361.856 338.896 361.441 338.961 361.03 339.092C360.629 339.223 360.288 339.405 360.008 339.638L359.322 338.364C359.724 338.056 360.2 337.827 360.75 337.678C361.31 337.519 361.889 337.44 362.486 337.44C363.569 337.44 364.404 337.701 364.992 338.224C365.59 338.737 365.888 339.535 365.888 340.618V345H364.236ZM361.884 345.098C361.324 345.098 360.834 345.005 360.414 344.818C359.994 344.622 359.668 344.356 359.434 344.02C359.21 343.675 359.098 343.287 359.098 342.858C359.098 342.438 359.196 342.06 359.392 341.724C359.598 341.388 359.929 341.122 360.386 340.926C360.844 340.73 361.45 340.632 362.206 340.632H364.376V341.794H362.332C361.735 341.794 361.334 341.892 361.128 342.088C360.923 342.275 360.82 342.508 360.82 342.788C360.82 343.105 360.946 343.357 361.198 343.544C361.45 343.731 361.8 343.824 362.248 343.824C362.678 343.824 363.06 343.726 363.396 343.53C363.742 343.334 363.989 343.045 364.138 342.662L364.432 343.712C364.264 344.151 363.961 344.491 363.522 344.734C363.093 344.977 362.547 345.098 361.884 345.098ZM371.923 345V337.524H377.663V339.008H373.267L373.673 338.616V345H371.923ZM381.941 345.098C381.175 345.098 380.494 344.935 379.897 344.608C379.299 344.272 378.828 343.815 378.483 343.236C378.137 342.657 377.965 341.999 377.965 341.262C377.965 340.515 378.137 339.857 378.483 339.288C378.828 338.709 379.299 338.257 379.897 337.93C380.494 337.603 381.175 337.44 381.941 337.44C382.715 337.44 383.401 337.603 383.999 337.93C384.605 338.257 385.077 338.705 385.413 339.274C385.758 339.843 385.931 340.506 385.931 341.262C385.931 341.999 385.758 342.657 385.413 343.236C385.077 343.815 384.605 344.272 383.999 344.608C383.401 344.935 382.715 345.098 381.941 345.098ZM381.941 343.6C382.37 343.6 382.753 343.507 383.089 343.32C383.425 343.133 383.686 342.863 383.873 342.508C384.069 342.153 384.167 341.738 384.167 341.262C384.167 340.777 384.069 340.361 383.873 340.016C383.686 339.661 383.425 339.391 383.089 339.204C382.753 339.017 382.375 338.924 381.955 338.924C381.525 338.924 381.143 339.017 380.807 339.204C380.48 339.391 380.219 339.661 380.023 340.016C379.827 340.361 379.729 340.777 379.729 341.262C379.729 341.738 379.827 342.153 380.023 342.508C380.219 342.863 380.48 343.133 380.807 343.32C381.143 343.507 381.521 343.6 381.941 343.6ZM392.701 344.188V339.008H389.831L389.789 340.212C389.771 340.641 389.743 341.057 389.705 341.458C389.668 341.85 389.607 342.214 389.523 342.55C389.439 342.877 389.318 343.147 389.159 343.362C389.001 343.577 388.791 343.717 388.529 343.782L386.793 343.516C387.073 343.516 387.297 343.427 387.465 343.25C387.643 343.063 387.778 342.811 387.871 342.494C387.974 342.167 388.049 341.799 388.095 341.388C388.142 340.968 388.175 340.534 388.193 340.086L388.291 337.524H394.451V344.188H392.701ZM386.527 346.666V343.516H395.557V346.666H393.919V345H388.151V346.666H386.527Z" fill="#2F2F2F"/>
<path d="M354.53 390V374.4L355.898 375.816H350.978V373.2H357.65V390H354.53ZM367.4 390V387.912L374.072 381.576C374.632 381.048 375.048 380.584 375.32 380.184C375.592 379.784 375.768 379.416 375.848 379.08C375.944 378.728 375.992 378.4 375.992 378.096C375.992 377.328 375.728 376.736 375.2 376.32C374.672 375.888 373.896 375.672 372.872 375.672C372.056 375.672 371.312 375.816 370.64 376.104C369.984 376.392 369.416 376.832 368.936 377.424L366.752 375.744C367.408 374.864 368.288 374.184 369.392 373.704C370.512 373.208 371.76 372.96 373.136 372.96C374.352 372.96 375.408 373.16 376.304 373.56C377.216 373.944 377.912 374.496 378.392 375.216C378.888 375.936 379.136 376.792 379.136 377.784C379.136 378.328 379.064 378.872 378.92 379.416C378.776 379.944 378.504 380.504 378.104 381.096C377.704 381.688 377.12 382.352 376.352 383.088L370.616 388.536L369.968 387.36H379.784V390H367.4ZM380.993 386.184V384.024L389.273 373.2H392.609L384.449 384.024L382.889 383.544H396.209V386.184H380.993ZM390.209 390V386.184L390.305 383.544V380.16H393.233V390H390.209ZM402.591 390.24C401.407 390.24 400.247 390.072 399.111 389.736C397.991 389.384 397.047 388.904 396.279 388.296L397.623 385.872C398.231 386.368 398.967 386.768 399.831 387.072C400.695 387.376 401.599 387.528 402.543 387.528C403.663 387.528 404.535 387.304 405.159 386.856C405.783 386.392 406.095 385.768 406.095 384.984C406.095 384.216 405.807 383.608 405.231 383.16C404.655 382.712 403.727 382.488 402.447 382.488H400.911V380.352L405.711 374.64L406.119 375.816H397.095V373.2H408.543V375.288L403.743 381L402.111 380.04H403.047C405.111 380.04 406.655 380.504 407.679 381.432C408.719 382.344 409.239 383.52 409.239 384.96C409.239 385.904 408.999 386.776 408.519 387.576C408.039 388.376 407.303 389.024 406.311 389.52C405.335 390 404.095 390.24 402.591 390.24ZM423.576 372.96C425.112 372.96 426.416 373.288 427.488 373.944C428.576 374.584 429.408 375.52 429.984 376.752C430.56 377.984 430.848 379.504 430.848 381.312C430.848 383.232 430.496 384.856 429.792 386.184C429.104 387.512 428.144 388.52 426.912 389.208C425.68 389.896 424.248 390.24 422.616 390.24C421.768 390.24 420.96 390.152 420.192 389.976C419.424 389.8 418.76 389.528 418.2 389.16L419.352 386.808C419.816 387.112 420.32 387.328 420.864 387.456C421.408 387.568 421.968 387.624 422.544 387.624C424.128 387.624 425.384 387.136 426.312 386.16C427.24 385.184 427.704 383.744 427.704 381.84C427.704 381.536 427.696 381.184 427.68 380.784C427.664 380.368 427.608 379.952 427.512 379.536L428.472 380.592C428.2 381.248 427.808 381.8 427.296 382.248C426.784 382.68 426.184 383.008 425.496 383.232C424.808 383.456 424.048 383.568 423.216 383.568C422.128 383.568 421.144 383.36 420.264 382.944C419.4 382.512 418.712 381.912 418.2 381.144C417.688 380.36 417.432 379.448 417.432 378.408C417.432 377.288 417.704 376.328 418.248 375.528C418.792 374.712 419.528 374.08 420.456 373.632C421.4 373.184 422.44 372.96 423.576 372.96ZM423.744 375.408C423.104 375.408 422.536 375.528 422.04 375.768C421.544 375.992 421.152 376.32 420.864 376.752C420.592 377.168 420.456 377.672 420.456 378.264C420.456 379.144 420.76 379.84 421.368 380.352C421.976 380.864 422.792 381.12 423.816 381.12C424.488 381.12 425.08 381 425.592 380.76C426.104 380.504 426.504 380.16 426.792 379.728C427.08 379.28 427.224 378.784 427.224 378.24C427.224 377.712 427.088 377.24 426.816 376.824C426.544 376.392 426.152 376.048 425.64 375.792C425.128 375.536 424.496 375.408 423.744 375.408ZM432.719 386.184V384.024L440.999 373.2H444.335L436.175 384.024L434.615 383.544H447.935V386.184H432.719ZM441.935 390V386.184L442.031 383.544V380.16H444.959V390H441.935ZM449.032 390V387.912L455.704 381.576C456.264 381.048 456.68 380.584 456.952 380.184C457.224 379.784 457.4 379.416 457.48 379.08C457.576 378.728 457.624 378.4 457.624 378.096C457.624 377.328 457.36 376.736 456.832 376.32C456.304 375.888 455.528 375.672 454.504 375.672C453.688 375.672 452.944 375.816 452.272 376.104C451.616 376.392 451.048 376.832 450.568 377.424L448.384 375.744C449.04 374.864 449.92 374.184 451.024 373.704C452.144 373.208 453.392 372.96 454.768 372.96C455.984 372.96 457.04 373.16 457.936 373.56C458.848 373.944 459.544 374.496 460.024 375.216C460.52 375.936 460.768 376.792 460.768 377.784C460.768 378.328 460.696 378.872 460.552 379.416C460.408 379.944 460.136 380.504 459.736 381.096C459.336 381.688 458.752 382.352 457.984 383.088L452.248 388.536L451.6 387.36H461.416V390H449.032ZM471.914 390V373.2H478.826C481.034 373.2 482.77 373.68 484.034 374.64C485.314 375.584 485.954 376.984 485.954 378.84C485.954 380.68 485.314 382.08 484.034 383.04C482.77 383.984 481.034 384.456 478.826 384.456H473.642L475.034 383.016V390H471.914ZM475.034 383.352L473.642 381.936H478.802C480.082 381.936 481.066 381.672 481.754 381.144C482.458 380.6 482.81 379.84 482.81 378.864C482.81 377.888 482.458 377.144 481.754 376.632C481.066 376.104 480.082 375.84 478.802 375.84H473.642L475.034 374.304V383.352ZM469.514 387.504V385.824H480.314V387.504H469.514Z" fill="#2F2F2F"/>
</g>
<g opacity="0.9">
<g filter="url(#filter3_bd_1_14329)">
<rect x="292" y="14" width="229" height="116" rx="12" fill="url(#paint4_linear_1_14329)"/>
<rect x="292" y="14" width="229" height="116" rx="12" fill="white" fill-opacity="0.9"/>
</g>
<path d="M309.56 41.18C308.6 41.18 307.706 41.024 306.878 40.712C306.062 40.388 305.348 39.938 304.736 39.362C304.136 38.774 303.668 38.084 303.332 37.292C302.996 36.5 302.828 35.636 302.828 34.7C302.828 33.764 302.996 32.9 303.332 32.108C303.668 31.316 304.142 30.632 304.754 30.056C305.366 29.468 306.08 29.018 306.896 28.706C307.712 28.382 308.606 28.22 309.578 28.22C310.61 28.22 311.552 28.4 312.404 28.76C313.256 29.108 313.976 29.63 314.564 30.326L313.052 31.748C312.596 31.256 312.086 30.89 311.522 30.65C310.958 30.398 310.346 30.272 309.686 30.272C309.026 30.272 308.42 30.38 307.868 30.596C307.328 30.812 306.854 31.118 306.446 31.514C306.05 31.91 305.738 32.378 305.51 32.918C305.294 33.458 305.186 34.052 305.186 34.7C305.186 35.348 305.294 35.942 305.51 36.482C305.738 37.022 306.05 37.49 306.446 37.886C306.854 38.282 307.328 38.588 307.868 38.804C308.42 39.02 309.026 39.128 309.686 39.128C310.346 39.128 310.958 39.008 311.522 38.768C312.086 38.516 312.596 38.138 313.052 37.634L314.564 39.074C313.976 39.758 313.256 40.28 312.404 40.64C311.552 41 310.604 41.18 309.56 41.18ZM320.598 41.126C319.53 41.126 318.594 40.916 317.79 40.496C316.998 40.064 316.38 39.476 315.936 38.732C315.504 37.988 315.288 37.142 315.288 36.194C315.288 35.234 315.498 34.388 315.918 33.656C316.35 32.912 316.938 32.33 317.682 31.91C318.438 31.49 319.296 31.28 320.256 31.28C321.192 31.28 322.026 31.484 322.758 31.892C323.49 32.3 324.066 32.876 324.486 33.62C324.906 34.364 325.116 35.24 325.116 36.248C325.116 36.344 325.11 36.452 325.098 36.572C325.098 36.692 325.092 36.806 325.08 36.914H317.07V35.42H323.892L323.01 35.888C323.022 35.336 322.908 34.85 322.668 34.43C322.428 34.01 322.098 33.68 321.678 33.44C321.27 33.2 320.796 33.08 320.256 33.08C319.704 33.08 319.218 33.2 318.798 33.44C318.39 33.68 318.066 34.016 317.826 34.448C317.598 34.868 317.484 35.366 317.484 35.942V36.302C317.484 36.878 317.616 37.388 317.88 37.832C318.144 38.276 318.516 38.618 318.996 38.858C319.476 39.098 320.028 39.218 320.652 39.218C321.192 39.218 321.678 39.134 322.11 38.966C322.542 38.798 322.926 38.534 323.262 38.174L324.468 39.56C324.036 40.064 323.49 40.454 322.83 40.73C322.182 40.994 321.438 41.126 320.598 41.126ZM332.166 41.18C331.374 41.18 330.666 41.06 330.042 40.82C329.418 40.58 328.878 40.214 328.422 39.722C327.978 39.218 327.636 38.582 327.396 37.814C327.156 37.046 327.036 36.134 327.036 35.078C327.036 34.31 327.102 33.608 327.234 32.972C327.366 32.336 327.564 31.766 327.828 31.262C328.092 30.746 328.422 30.29 328.818 29.894C329.226 29.498 329.7 29.168 330.24 28.904C330.78 28.64 331.392 28.436 332.076 28.292L336.54 27.338L336.864 29.354L332.814 30.182C332.586 30.23 332.31 30.302 331.986 30.398C331.674 30.482 331.35 30.614 331.014 30.794C330.69 30.962 330.384 31.208 330.096 31.532C329.82 31.844 329.592 32.252 329.412 32.756C329.244 33.248 329.16 33.866 329.16 34.61C329.16 34.838 329.166 35.012 329.178 35.132C329.202 35.24 329.22 35.36 329.232 35.492C329.256 35.612 329.268 35.792 329.268 36.032L328.422 35.15C328.662 34.538 328.992 34.016 329.412 33.584C329.844 33.14 330.342 32.804 330.906 32.576C331.482 32.336 332.106 32.216 332.778 32.216C333.678 32.216 334.476 32.402 335.172 32.774C335.868 33.146 336.414 33.668 336.81 34.34C337.206 35.012 337.404 35.774 337.404 36.626C337.404 37.514 337.188 38.3 336.756 38.984C336.324 39.668 335.712 40.208 334.92 40.604C334.14 40.988 333.222 41.18 332.166 41.18ZM332.346 39.362C332.886 39.362 333.36 39.248 333.768 39.02C334.188 38.78 334.512 38.456 334.74 38.048C334.98 37.64 335.1 37.184 335.1 36.68C335.1 36.176 334.98 35.738 334.74 35.366C334.512 34.982 334.188 34.676 333.768 34.448C333.36 34.22 332.874 34.106 332.31 34.106C331.77 34.106 331.284 34.214 330.852 34.43C330.432 34.646 330.102 34.946 329.862 35.33C329.634 35.702 329.52 36.134 329.52 36.626C329.52 37.13 329.64 37.592 329.88 38.012C330.12 38.432 330.45 38.762 330.87 39.002C331.302 39.242 331.794 39.362 332.346 39.362ZM344.064 41.126C342.996 41.126 342.06 40.916 341.256 40.496C340.464 40.064 339.846 39.476 339.402 38.732C338.97 37.988 338.754 37.142 338.754 36.194C338.754 35.234 338.964 34.388 339.384 33.656C339.816 32.912 340.404 32.33 341.148 31.91C341.904 31.49 342.762 31.28 343.722 31.28C344.658 31.28 345.492 31.484 346.224 31.892C346.956 32.3 347.532 32.876 347.952 33.62C348.372 34.364 348.582 35.24 348.582 36.248C348.582 36.344 348.576 36.452 348.564 36.572C348.564 36.692 348.558 36.806 348.546 36.914H340.536V35.42H347.358L346.476 35.888C346.488 35.336 346.374 34.85 346.134 34.43C345.894 34.01 345.564 33.68 345.144 33.44C344.736 33.2 344.262 33.08 343.722 33.08C343.17 33.08 342.684 33.2 342.264 33.44C341.856 33.68 341.532 34.016 341.292 34.448C341.064 34.868 340.95 35.366 340.95 35.942V36.302C340.95 36.878 341.082 37.388 341.346 37.832C341.61 38.276 341.982 38.618 342.462 38.858C342.942 39.098 343.494 39.218 344.118 39.218C344.658 39.218 345.144 39.134 345.576 38.966C346.008 38.798 346.392 38.534 346.728 38.174L347.934 39.56C347.502 40.064 346.956 40.454 346.296 40.73C345.648 40.994 344.904 41.126 344.064 41.126ZM355.417 41.126C354.409 41.126 353.509 40.916 352.717 40.496C351.937 40.064 351.325 39.476 350.881 38.732C350.437 37.988 350.215 37.142 350.215 36.194C350.215 35.234 350.437 34.388 350.881 33.656C351.325 32.912 351.937 32.33 352.717 31.91C353.509 31.49 354.409 31.28 355.417 31.28C356.353 31.28 357.175 31.472 357.883 31.856C358.603 32.228 359.149 32.78 359.521 33.512L357.793 34.52C357.505 34.064 357.151 33.728 356.731 33.512C356.323 33.296 355.879 33.188 355.399 33.188C354.847 33.188 354.349 33.308 353.905 33.548C353.461 33.788 353.113 34.136 352.861 34.592C352.609 35.036 352.483 35.57 352.483 36.194C352.483 36.818 352.609 37.358 352.861 37.814C353.113 38.258 353.461 38.6 353.905 38.84C354.349 39.08 354.847 39.2 355.399 39.2C355.879 39.2 356.323 39.092 356.731 38.876C357.151 38.66 357.505 38.324 357.793 37.868L359.521 38.876C359.149 39.596 358.603 40.154 357.883 40.55C357.175 40.934 356.353 41.126 355.417 41.126ZM363.43 41V32.756L363.952 33.296H360.046V31.388H369.046V33.296H365.158L365.68 32.756V41H363.43ZM374.54 41.126C373.556 41.126 372.68 40.916 371.912 40.496C371.144 40.064 370.538 39.476 370.094 38.732C369.65 37.988 369.428 37.142 369.428 36.194C369.428 35.234 369.65 34.388 370.094 33.656C370.538 32.912 371.144 32.33 371.912 31.91C372.68 31.49 373.556 31.28 374.54 31.28C375.536 31.28 376.418 31.49 377.186 31.91C377.966 32.33 378.572 32.906 379.004 33.638C379.448 34.37 379.67 35.222 379.67 36.194C379.67 37.142 379.448 37.988 379.004 38.732C378.572 39.476 377.966 40.064 377.186 40.496C376.418 40.916 375.536 41.126 374.54 41.126ZM374.54 39.2C375.092 39.2 375.584 39.08 376.016 38.84C376.448 38.6 376.784 38.252 377.024 37.796C377.276 37.34 377.402 36.806 377.402 36.194C377.402 35.57 377.276 35.036 377.024 34.592C376.784 34.136 376.448 33.788 376.016 33.548C375.584 33.308 375.098 33.188 374.558 33.188C374.006 33.188 373.514 33.308 373.082 33.548C372.662 33.788 372.326 34.136 372.074 34.592C371.822 35.036 371.696 35.57 371.696 36.194C371.696 36.806 371.822 37.34 372.074 37.796C372.326 38.252 372.662 38.6 373.082 38.84C373.514 39.08 374 39.2 374.54 39.2ZM381.893 41V31.388H384.143V37.724L389.453 31.388H391.505V41H389.255V34.664L383.963 41H381.893ZM394.532 41V31.388H396.89L400.76 38.21H399.824L403.892 31.388H405.998L406.016 41H403.982V33.8L404.342 34.034L400.742 39.992H399.77L396.152 33.872L396.584 33.764V41H394.532ZM413.317 41.126C412.333 41.126 411.457 40.916 410.689 40.496C409.921 40.064 409.315 39.476 408.871 38.732C408.427 37.988 408.205 37.142 408.205 36.194C408.205 35.234 408.427 34.388 408.871 33.656C409.315 32.912 409.921 32.33 410.689 31.91C411.457 31.49 412.333 31.28 413.317 31.28C414.313 31.28 415.195 31.49 415.963 31.91C416.743 32.33 417.349 32.906 417.781 33.638C418.225 34.37 418.447 35.222 418.447 36.194C418.447 37.142 418.225 37.988 417.781 38.732C417.349 39.476 416.743 40.064 415.963 40.496C415.195 40.916 414.313 41.126 413.317 41.126ZM413.317 39.2C413.869 39.2 414.361 39.08 414.793 38.84C415.225 38.6 415.561 38.252 415.801 37.796C416.053 37.34 416.179 36.806 416.179 36.194C416.179 35.57 416.053 35.036 415.801 34.592C415.561 34.136 415.225 33.788 414.793 33.548C414.361 33.308 413.875 33.188 413.335 33.188C412.783 33.188 412.291 33.308 411.859 33.548C411.439 33.788 411.103 34.136 410.851 34.592C410.599 35.036 410.473 35.57 410.473 36.194C410.473 36.806 410.599 37.34 410.851 37.796C411.103 38.252 411.439 38.6 411.859 38.84C412.291 39.08 412.777 39.2 413.317 39.2ZM425.044 41.126C424.036 41.126 423.136 40.916 422.344 40.496C421.564 40.064 420.952 39.476 420.508 38.732C420.064 37.988 419.842 37.142 419.842 36.194C419.842 35.234 420.064 34.388 420.508 33.656C420.952 32.912 421.564 32.33 422.344 31.91C423.136 31.49 424.036 31.28 425.044 31.28C425.98 31.28 426.802 31.472 427.51 31.856C428.23 32.228 428.776 32.78 429.148 33.512L427.42 34.52C427.132 34.064 426.778 33.728 426.358 33.512C425.95 33.296 425.506 33.188 425.026 33.188C424.474 33.188 423.976 33.308 423.532 33.548C423.088 33.788 422.74 34.136 422.488 34.592C422.236 35.036 422.11 35.57 422.11 36.194C422.11 36.818 422.236 37.358 422.488 37.814C422.74 38.258 423.088 38.6 423.532 38.84C423.976 39.08 424.474 39.2 425.026 39.2C425.506 39.2 425.95 39.092 426.358 38.876C426.778 38.66 427.132 38.324 427.42 37.868L429.148 38.876C428.776 39.596 428.23 40.154 427.51 40.55C426.802 40.934 425.98 41.126 425.044 41.126ZM433.057 41V32.756L433.579 33.296H429.673V31.388H438.673V33.296H434.785L435.307 32.756V41H433.057ZM445.129 34.556C446.365 34.556 447.307 34.832 447.955 35.384C448.603 35.936 448.927 36.716 448.927 37.724C448.927 38.768 448.567 39.584 447.847 40.172C447.127 40.748 446.113 41.03 444.805 41.018L440.305 41V31.388H442.555V34.538L445.129 34.556ZM444.607 39.362C445.267 39.374 445.771 39.236 446.119 38.948C446.467 38.66 446.641 38.24 446.641 37.688C446.641 37.136 446.467 36.74 446.119 36.5C445.783 36.248 445.279 36.116 444.607 36.104L442.555 36.086V39.344L444.607 39.362Z" fill="#2F2F2F"/>
<path opacity="0.2" d="M305.542 58.126C304.973 58.126 304.408 58.0607 303.848 57.93C303.297 57.79 302.798 57.594 302.35 57.342L302.84 56.04C303.204 56.2453 303.615 56.404 304.072 56.516C304.529 56.628 304.987 56.684 305.444 56.684C305.836 56.684 306.172 56.6467 306.452 56.572C306.732 56.488 306.947 56.3667 307.096 56.208C307.255 56.0493 307.334 55.8673 307.334 55.662C307.334 55.3633 307.203 55.1393 306.942 54.99C306.69 54.8313 306.326 54.752 305.85 54.752H304.408V53.576H305.71C306.009 53.576 306.261 53.5433 306.466 53.478C306.681 53.4127 306.844 53.3147 306.956 53.184C307.068 53.0533 307.124 52.8993 307.124 52.722C307.124 52.5447 307.054 52.3907 306.914 52.26C306.783 52.12 306.592 52.0173 306.34 51.952C306.088 51.8773 305.785 51.84 305.43 51.84C305.057 51.84 304.669 51.8867 304.268 51.98C303.876 52.0733 303.475 52.2087 303.064 52.386L302.616 51.098C303.092 50.8833 303.554 50.72 304.002 50.608C304.459 50.4867 304.912 50.4213 305.36 50.412C306.041 50.384 306.648 50.454 307.18 50.622C307.712 50.79 308.132 51.0327 308.44 51.35C308.748 51.6673 308.902 52.0407 308.902 52.47C308.902 52.8247 308.79 53.1467 308.566 53.436C308.351 53.716 308.053 53.9353 307.67 54.094C307.297 54.2527 306.867 54.332 306.382 54.332L306.438 53.954C307.269 53.954 307.922 54.122 308.398 54.458C308.874 54.7847 309.112 55.2327 309.112 55.802C309.112 56.2593 308.958 56.6653 308.65 57.02C308.342 57.3653 307.917 57.636 307.376 57.832C306.844 58.028 306.233 58.126 305.542 58.126ZM315.45 58V56.488L315.352 56.166V53.52C315.352 53.0067 315.198 52.61 314.89 52.33C314.582 52.0407 314.116 51.896 313.49 51.896C313.07 51.896 312.655 51.9613 312.244 52.092C311.843 52.2227 311.502 52.4047 311.222 52.638L310.536 51.364C310.938 51.056 311.414 50.8273 311.964 50.678C312.524 50.5193 313.103 50.44 313.7 50.44C314.783 50.44 315.618 50.7013 316.206 51.224C316.804 51.7373 317.102 52.5353 317.102 53.618V58H315.45ZM313.098 58.098C312.538 58.098 312.048 58.0047 311.628 57.818C311.208 57.622 310.882 57.356 310.648 57.02C310.424 56.6747 310.312 56.2873 310.312 55.858C310.312 55.438 310.41 55.06 310.606 54.724C310.812 54.388 311.143 54.122 311.6 53.926C312.058 53.73 312.664 53.632 313.42 53.632H315.59V54.794H313.546C312.949 54.794 312.548 54.892 312.342 55.088C312.137 55.2747 312.034 55.508 312.034 55.788C312.034 56.1053 312.16 56.3573 312.412 56.544C312.664 56.7307 313.014 56.824 313.462 56.824C313.892 56.824 314.274 56.726 314.61 56.53C314.956 56.334 315.203 56.0447 315.352 55.662L315.646 56.712C315.478 57.1507 315.175 57.4913 314.736 57.734C314.307 57.9767 313.761 58.098 313.098 58.098ZM323.137 58V50.524H324.971L327.981 55.83H327.253L330.417 50.524H332.055L332.069 58H330.487V52.4L330.767 52.582L327.967 57.216H327.211L324.397 52.456L324.733 52.372V58H323.137ZM337.902 58.098C337.072 58.098 336.344 57.9347 335.718 57.608C335.102 57.272 334.622 56.8147 334.276 56.236C333.94 55.6573 333.772 54.9993 333.772 54.262C333.772 53.5153 333.936 52.8573 334.262 52.288C334.598 51.7093 335.056 51.2567 335.634 50.93C336.222 50.6033 336.89 50.44 337.636 50.44C338.364 50.44 339.013 50.5987 339.582 50.916C340.152 51.2333 340.6 51.6813 340.926 52.26C341.253 52.8387 341.416 53.52 341.416 54.304C341.416 54.3787 341.412 54.4627 341.402 54.556C341.402 54.6493 341.398 54.738 341.388 54.822H335.158V53.66H340.464L339.778 54.024C339.788 53.5947 339.699 53.2167 339.512 52.89C339.326 52.5633 339.069 52.3067 338.742 52.12C338.425 51.9333 338.056 51.84 337.636 51.84C337.207 51.84 336.829 51.9333 336.502 52.12C336.185 52.3067 335.933 52.568 335.746 52.904C335.569 53.2307 335.48 53.618 335.48 54.066V54.346C335.48 54.794 335.583 55.1907 335.788 55.536C335.994 55.8813 336.283 56.1473 336.656 56.334C337.03 56.5207 337.459 56.614 337.944 56.614C338.364 56.614 338.742 56.5487 339.078 56.418C339.414 56.2873 339.713 56.082 339.974 55.802L340.912 56.88C340.576 57.272 340.152 57.5753 339.638 57.79C339.134 57.9953 338.556 58.098 337.902 58.098ZM346.732 58.098C345.948 58.098 345.248 57.9347 344.632 57.608C344.026 57.272 343.55 56.8147 343.204 56.236C342.859 55.6573 342.686 54.9993 342.686 54.262C342.686 53.5153 342.859 52.8573 343.204 52.288C343.55 51.7093 344.026 51.2567 344.632 50.93C345.248 50.6033 345.948 50.44 346.732 50.44C347.46 50.44 348.1 50.5893 348.65 50.888C349.21 51.1773 349.635 51.6067 349.924 52.176L348.58 52.96C348.356 52.6053 348.081 52.344 347.754 52.176C347.437 52.008 347.092 51.924 346.718 51.924C346.289 51.924 345.902 52.0173 345.556 52.204C345.211 52.3907 344.94 52.6613 344.744 53.016C344.548 53.3613 344.45 53.7767 344.45 54.262C344.45 54.7473 344.548 55.1673 344.744 55.522C344.94 55.8673 345.211 56.1333 345.556 56.32C345.902 56.5067 346.289 56.6 346.718 56.6C347.092 56.6 347.437 56.516 347.754 56.348C348.081 56.18 348.356 55.9187 348.58 55.564L349.924 56.348C349.635 56.908 349.21 57.342 348.65 57.65C348.1 57.9487 347.46 58.098 346.732 58.098ZM356.006 58V55.452L356.258 55.746H354.018C352.991 55.746 352.184 55.5313 351.596 55.102C351.017 54.6633 350.728 54.0333 350.728 53.212C350.728 52.3347 351.036 51.6673 351.652 51.21C352.277 50.7527 353.108 50.524 354.144 50.524H357.574V58H356.006ZM350.63 58L352.646 55.144H354.438L352.506 58H350.63ZM356.006 54.892V51.532L356.258 51.994H354.2C353.659 51.994 353.239 52.0967 352.94 52.302C352.651 52.498 352.506 52.82 352.506 53.268C352.506 54.108 353.052 54.528 354.144 54.528H356.258L356.006 54.892ZM359.928 58V50.524H361.678V56.516H365.248V50.524H366.998V58H359.928ZM366.494 59.666V57.958L366.9 58H365.248V56.516H368.132V59.666H366.494Z" fill="#2F2F2F"/>
<path d="M302.84 103V100.912L309.512 94.576C310.072 94.048 310.488 93.584 310.76 93.184C311.032 92.784 311.208 92.416 311.288 92.08C311.384 91.728 311.432 91.4 311.432 91.096C311.432 90.328 311.168 89.736 310.64 89.32C310.112 88.888 309.336 88.672 308.312 88.672C307.496 88.672 306.752 88.816 306.08 89.104C305.424 89.392 304.856 89.832 304.376 90.424L302.192 88.744C302.848 87.864 303.728 87.184 304.832 86.704C305.952 86.208 307.2 85.96 308.576 85.96C309.792 85.96 310.848 86.16 311.744 86.56C312.656 86.944 313.352 87.496 313.832 88.216C314.328 88.936 314.576 89.792 314.576 90.784C314.576 91.328 314.504 91.872 314.36 92.416C314.216 92.944 313.944 93.504 313.544 94.096C313.144 94.688 312.56 95.352 311.792 96.088L306.056 101.536L305.408 100.36H315.224V103H302.84ZM319.713 103V87.4L321.081 88.816H316.161V86.2H322.833V103H319.713ZM333.173 103.24C331.845 103.24 330.645 102.904 329.573 102.232C328.517 101.56 327.685 100.584 327.077 99.304C326.469 98.008 326.165 96.44 326.165 94.6C326.165 92.76 326.469 91.2 327.077 89.92C327.685 88.624 328.517 87.64 329.573 86.968C330.645 86.296 331.845 85.96 333.173 85.96C334.517 85.96 335.717 86.296 336.773 86.968C337.829 87.64 338.661 88.624 339.269 89.92C339.893 91.2 340.205 92.76 340.205 94.6C340.205 96.44 339.893 98.008 339.269 99.304C338.661 100.584 337.829 101.56 336.773 102.232C335.717 102.904 334.517 103.24 333.173 103.24ZM333.173 100.528C333.957 100.528 334.637 100.32 335.213 99.904C335.789 99.472 336.237 98.816 336.557 97.936C336.893 97.056 337.061 95.944 337.061 94.6C337.061 93.24 336.893 92.128 336.557 91.264C336.237 90.384 335.789 89.736 335.213 89.32C334.637 88.888 333.957 88.672 333.173 88.672C332.421 88.672 331.749 88.888 331.157 89.32C330.581 89.736 330.125 90.384 329.789 91.264C329.469 92.128 329.309 93.24 329.309 94.6C329.309 95.944 329.469 97.056 329.789 97.936C330.125 98.816 330.581 99.472 331.157 99.904C331.749 100.32 332.421 100.528 333.173 100.528ZM354.227 103.24C353.043 103.24 351.883 103.072 350.747 102.736C349.627 102.384 348.683 101.904 347.915 101.296L349.259 98.872C349.867 99.368 350.603 99.768 351.467 100.072C352.331 100.376 353.235 100.528 354.179 100.528C355.299 100.528 356.171 100.304 356.795 99.856C357.419 99.392 357.731 98.768 357.731 97.984C357.731 97.216 357.443 96.608 356.867 96.16C356.291 95.712 355.363 95.488 354.083 95.488H352.547V93.352L357.347 87.64L357.755 88.816H348.731V86.2H360.179V88.288L355.379 94L353.747 93.04H354.683C356.747 93.04 358.291 93.504 359.315 94.432C360.355 95.344 360.875 96.52 360.875 97.96C360.875 98.904 360.635 99.776 360.155 100.576C359.675 101.376 358.939 102.024 357.947 102.52C356.971 103 355.731 103.24 354.227 103.24ZM368.249 103.24C367.065 103.24 365.905 103.072 364.769 102.736C363.649 102.384 362.705 101.904 361.937 101.296L363.257 98.872C363.865 99.368 364.601 99.768 365.465 100.072C366.345 100.376 367.257 100.528 368.201 100.528C369.305 100.528 370.169 100.296 370.793 99.832C371.433 99.368 371.753 98.744 371.753 97.96C371.753 97.432 371.617 96.968 371.345 96.568C371.089 96.168 370.625 95.864 369.953 95.656C369.297 95.448 368.393 95.344 367.241 95.344H363.185L364.049 86.2H373.913V88.816H365.201L366.833 87.328L366.185 94.168L364.553 92.704H367.937C369.601 92.704 370.937 92.928 371.945 93.376C372.969 93.808 373.713 94.416 374.177 95.2C374.657 95.968 374.897 96.848 374.897 97.84C374.897 98.816 374.657 99.712 374.177 100.528C373.697 101.344 372.961 102 371.969 102.496C370.993 102.992 369.753 103.24 368.249 103.24ZM381.859 103.24C380.675 103.24 379.515 103.072 378.379 102.736C377.259 102.384 376.315 101.904 375.547 101.296L376.891 98.872C377.499 99.368 378.235 99.768 379.099 100.072C379.963 100.376 380.867 100.528 381.811 100.528C382.931 100.528 383.803 100.304 384.427 99.856C385.051 99.392 385.363 98.768 385.363 97.984C385.363 97.216 385.075 96.608 384.499 96.16C383.923 95.712 382.995 95.488 381.715 95.488H380.179V93.352L384.979 87.64L385.387 88.816H376.363V86.2H387.811V88.288L383.011 94L381.379 93.04H382.315C384.379 93.04 385.923 93.504 386.947 94.432C387.987 95.344 388.507 96.52 388.507 97.96C388.507 98.904 388.267 99.776 387.787 100.576C387.307 101.376 386.571 102.024 385.579 102.52C384.603 103 383.363 103.24 381.859 103.24ZM399.245 103V86.2H406.157C408.365 86.2 410.101 86.68 411.365 87.64C412.645 88.584 413.285 89.984 413.285 91.84C413.285 93.68 412.645 95.08 411.365 96.04C410.101 96.984 408.365 97.456 406.157 97.456H400.973L402.365 96.016V103H399.245ZM402.365 96.352L400.973 94.936H406.133C407.413 94.936 408.397 94.672 409.085 94.144C409.789 93.6 410.141 92.84 410.141 91.864C410.141 90.888 409.789 90.144 409.085 89.632C408.397 89.104 407.413 88.84 406.133 88.84H400.973L402.365 87.304V96.352ZM396.845 100.504V98.824H407.645V100.504H396.845Z" fill="#2F2F2F"/>
</g>
<defs>
<filter id="filter0_bd_1_14329" x="423.367" y="343.367" width="546.267" height="472.925" filterUnits="userSpaceOnUse" color-interpolation-filters="sRGB">
<feFlood flood-opacity="0" result="BackgroundImageFix"/>
<feGaussianBlur in="BackgroundImageFix" stdDeviation="79.3167"/>
<feComposite in2="SourceAlpha" operator="in" result="effect1_backgroundBlur_1_14329"/>
<feColorMatrix in="SourceAlpha" type="matrix" values="0 0 0 0 0 0 0 0 0 0 0 0 0 0 0 0 0 0 127 0" result="hardAlpha"/>
<feOffset dy="92.5362"/>
<feGaussianBlur stdDeviation="52.8778"/>
<feComposite in2="hardAlpha" operator="out"/>
<feColorMatrix type="matrix" values="0 0 0 0 0.0862745 0 0 0 0 0.0980392 0 0 0 0 0.141176 0 0 0 0.3 0"/>
<feBlend mode="normal" in2="effect1_backgroundBlur_1_14329" result="effect2_dropShadow_1_14329"/>
<feBlend mode="normal" in="SourceGraphic" in2="effect2_dropShadow_1_14329" result="shape"/>
</filter>
<filter id="filter1_bd_1_14329" x="-52.6335" y="254.367" width="546.267" height="472.925" filterUnits="userSpaceOnUse" color-interpolation-filters="sRGB">
<feFlood flood-opacity="0" result="BackgroundImageFix"/>
<feGaussianBlur in="BackgroundImageFix" stdDeviation="79.3167"/>
<feComposite in2="SourceAlpha" operator="in" result="effect1_backgroundBlur_1_14329"/>
<feColorMatrix in="SourceAlpha" type="matrix" values="0 0 0 0 0 0 0 0 0 0 0 0 0 0 0 0 0 0 127 0" result="hardAlpha"/>
<feOffset dy="92.5362"/>
<feGaussianBlur stdDeviation="52.8778"/>
<feComposite in2="hardAlpha" operator="out"/>
<feColorMatrix type="matrix" values="0 0 0 0 0.0862745 0 0 0 0 0.0980392 0 0 0 0 0.141176 0 0 0 0.3 0"/>
<feBlend mode="normal" in2="effect1_backgroundBlur_1_14329" result="effect2_dropShadow_1_14329"/>
<feBlend mode="normal" in="SourceGraphic" in2="effect2_dropShadow_1_14329" result="shape"/>
</filter>
<filter id="filter2_bd_1_14329" x="181.367" y="142.367" width="564.267" height="472.925" filterUnits="userSpaceOnUse" color-interpolation-filters="sRGB">
<feFlood flood-opacity="0" result="BackgroundImageFix"/>
<feGaussianBlur in="BackgroundImageFix" stdDeviation="79.3167"/>
<feComposite in2="SourceAlpha" operator="in" result="effect1_backgroundBlur_1_14329"/>
<feColorMatrix in="SourceAlpha" type="matrix" values="0 0 0 0 0 0 0 0 0 0 0 0 0 0 0 0 0 0 127 0" result="hardAlpha"/>
<feOffset dy="92.5362"/>
<feGaussianBlur stdDeviation="52.8778"/>
<feComposite in2="hardAlpha" operator="out"/>
<feColorMatrix type="matrix" values="0 0 0 0 0.0862745 0 0 0 0 0.0980392 0 0 0 0 0.141176 0 0 0 0.3 0"/>
<feBlend mode="normal" in2="effect1_backgroundBlur_1_14329" result="effect2_dropShadow_1_14329"/>
<feBlend mode="normal" in="SourceGraphic" in2="effect2_dropShadow_1_14329" result="shape"/>
</filter>
<filter id="filter3_bd_1_14329" x="133.367" y="-144.633" width="546.267" height="472.925" filterUnits="userSpaceOnUse" color-interpolation-filters="sRGB">
<feFlood flood-opacity="0" result="BackgroundImageFix"/>
<feGaussianBlur in="BackgroundImageFix" stdDeviation="79.3167"/>
<feComposite in2="SourceAlpha" operator="in" result="effect1_backgroundBlur_1_14329"/>
<feColorMatrix in="SourceAlpha" type="matrix" values="0 0 0 0 0 0 0 0 0 0 0 0 0 0 0 0 0 0 127 0" result="hardAlpha"/>
<feOffset dy="92.5362"/>
<feGaussianBlur stdDeviation="52.8778"/>
<feComposite in2="hardAlpha" operator="out"/>
<feColorMatrix type="matrix" values="0 0 0 0 0.0862745 0 0 0 0 0.0980392 0 0 0 0 0.141176 0 0 0 0.3 0"/>
<feBlend mode="normal" in2="effect1_backgroundBlur_1_14329" result="effect2_dropShadow_1_14329"/>
<feBlend mode="normal" in="SourceGraphic" in2="effect2_dropShadow_1_14329" result="shape"/>
</filter>
<linearGradient id="paint0_linear_1_14329" x1="594.561" y1="554.727" x2="805.742" y2="556.498" gradientUnits="userSpaceOnUse">
<stop stop-color="#E81CFF"/>
<stop offset="0.0001" stop-color="#E81CFF"/>
<stop offset="1" stop-color="#45CAFF"/>
</linearGradient>
<linearGradient id="paint1_linear_1_14329" x1="118.561" y1="465.727" x2="329.742" y2="467.498" gradientUnits="userSpaceOnUse">
<stop stop-color="#E81CFF"/>
<stop offset="0.0001" stop-color="#E81CFF"/>
<stop offset="1" stop-color="#45CAFF"/>
</linearGradient>
<linearGradient id="paint2_linear_1_14329" x1="353.549" y1="353.727" x2="581.326" y2="355.788" gradientUnits="userSpaceOnUse">
<stop stop-color="#E81CFF"/>
<stop offset="0.0001" stop-color="#E81CFF"/>
<stop offset="1" stop-color="#45CAFF"/>
</linearGradient>
<linearGradient id="paint3_linear_1_14329" x1="353.549" y1="353.727" x2="581.326" y2="355.788" gradientUnits="userSpaceOnUse">
<stop stop-color="#E81CFF"/>
<stop offset="0.0001" stop-color="#E81CFF"/>
<stop offset="1" stop-color="#45CAFF"/>
</linearGradient>
<linearGradient id="paint4_linear_1_14329" x1="304.561" y1="66.7273" x2="515.742" y2="68.4984" gradientUnits="userSpaceOnUse">
<stop stop-color="#E81CFF"/>
<stop offset="0.0001" stop-color="#E81CFF"/>
<stop offset="1" stop-color="#45CAFF"/>
</linearGradient>
</defs>
</svg>
