<svg width="952" height="17" viewBox="0 0 952 17" fill="none" xmlns="http://www.w3.org/2000/svg">
<path d="M-16 8.5C-16 12.9183 -12.4183 16.5 -8 16.5C-3.58172 16.5 0 12.9183 0 8.5C0 4.08172 -3.58172 0.5 -8 0.5C-12.4183 0.5 -16 4.08172 -16 8.5ZM936 8.5C936 12.9183 939.582 16.5 944 16.5C948.418 16.5 952 12.9183 952 8.5C952 4.08172 948.418 0.5 944 0.5C939.582 0.5 936 4.08172 936 8.5ZM-8 10H944V7H-8V10Z" fill="url(#paint0_linear_1_10329)"/>
<defs>
<linearGradient id="paint0_linear_1_10329" x1="44.2194" y1="8.95455" x2="94.8016" y2="213.531" gradientUnits="userSpaceOnUse">
<stop stop-color="#E81CFF"/>
<stop offset="0.0001" stop-color="#E81CFF"/>
<stop offset="1" stop-color="#45CAFF"/>
</linearGradient>
</defs>
</svg>
