<svg width="365" height="395" viewBox="0 0 365 395" fill="none" xmlns="http://www.w3.org/2000/svg">
<path d="M3.82611 263.853C12.9566 232.448 15.554 218.201 26.8884 207.181C32.5556 201.672 39.9544 198.287 47.8255 197.421L55.6966 160.899L25.9439 152.005C10.4378 147.361 2.88159 139.569 2.88159 122.174C2.88159 103.755 5.79391 85.4944 11.4611 68.0205C12.563 64.085 14.3734 60.4643 16.8922 57.2371C30.273 40.7078 58.5302 47.5557 79.0738 52.5145L85.1345 24.2573C88.5978 8.0428 104.576 -2.26833 120.791 1.27366C120.869 1.27366 119.531 0.958814 279.787 35.5916C296.001 39.1336 306.234 55.0332 302.77 71.2477L301.668 76.5213C306.942 73.4516 311.743 73.609 317.253 74.3174C326.541 76.2852 335.908 78.6465 344.959 81.4801C357.396 85.2582 362.512 93.6016 361.016 106.274C360.151 113.515 358.812 120.678 357.002 127.683C363.771 132.957 365.188 140.513 364.165 148.542C362.984 157.672 360.938 166.724 358.025 175.461C354.798 185.3 347.872 190.337 338.426 190.337C333.704 190.259 333.625 190.022 305.919 183.804C302.534 183.017 296.237 181.679 291.436 176.406C281.912 166.016 286.477 151.139 291.829 137.995C290.806 137.286 289.862 136.42 288.917 135.476L281.597 169.4C287.579 176.563 293.246 183.962 298.52 191.439C306.47 202.774 308.516 208.441 310.405 222.294C318.985 285.892 313.947 278.021 320.716 288.254L357.081 343.588C353.46 347.208 335.199 376.253 294.584 392.31C283.722 396.639 274.592 392.939 270.184 383.494C250.191 341.147 246.413 333.276 241.533 322.178C234.528 327.688 225.476 329.734 216.818 327.845L201.469 324.539C199.58 329.498 197.691 334.378 195.645 339.101C193.205 344.768 188.167 356.654 176.046 361.219C169.198 363.895 162.507 363.265 155.423 362.006C109.22 353.426 66.5587 335.008 26.8097 316.826C20.198 313.835 10.2804 309.27 4.61322 299.352C-2.70688 286.522 1.54352 271.803 3.82611 263.853Z" fill="white"/>
<path d="M317.961 129.021C326.856 131.068 335.671 133.508 344.408 136.342C349.997 138.152 351.807 140.12 350.863 146.889C349.761 155.232 347.872 163.418 345.274 171.447C343.779 175.933 341.968 178.294 333.782 176.484C305.289 170.109 303.793 170.266 301.275 167.511C298.52 164.52 298.992 159.797 300.015 155.783C301.59 149.565 304.03 143.583 306.47 137.68C307.572 135.003 308.674 132.249 310.799 130.281C312.924 128.313 316.23 127.447 317.961 129.021Z" fill="#8587FF"/>
<path d="M331.185 161.372C321.267 166.881 324.101 165.543 318.355 167.59C317.332 167.983 316.23 167.118 316.387 166.016C316.623 164.441 317.332 162.552 319.536 161.844L321.74 160.506L312.058 158.695C310.484 158.381 309.382 156.885 309.697 155.232C309.776 154.76 309.461 155.626 315.128 142.717C316.072 140.592 318.198 139.411 320.48 139.726C328.745 140.907 330.398 140.435 334.412 144.449L331.185 161.372Z" fill="white"/>
<path d="M331.185 161.372L338.033 163.339L342.126 145.708L334.334 144.449L331.185 161.372Z" fill="#4AC0FB"/>
<path d="M260.739 166.094C270.341 176.642 279.314 187.74 287.579 199.389C294.269 208.834 295.529 212.455 297.103 224.262C305.525 286.365 300.409 281.957 309.461 295.731C319.772 311.473 330.083 327.137 340.394 342.879C326.934 359.33 309.382 372.16 289.625 379.952C284.903 381.841 283.486 380.424 282.227 377.906C264.595 340.597 237.047 285.578 237.047 264.011C237.047 257.084 239.329 250.394 240.982 243.703C247.043 219.697 245.547 191.361 260.739 166.094Z" fill="#FFAD92"/>
<path d="M283.722 50.2319L111.345 13.0803C106.072 11.9783 100.877 15.2842 99.775 20.5578L46.409 267.553C45.307 272.826 48.6129 278.021 53.8865 279.123L226.263 316.275C231.537 317.377 236.732 314.071 237.834 308.797L291.2 61.8024C292.302 56.6074 288.917 51.4125 283.722 50.2319Z" fill="#4AC0FB"/>
<path d="M271.207 56.7649L120.004 24.1786C114.73 23.0766 109.535 26.3825 108.433 31.6561C105.521 45.037 62.151 246.065 59.2387 259.524C58.1368 264.798 61.4426 269.993 66.7163 271.095L217.92 303.76C223.194 304.862 228.389 301.556 229.49 296.282C229.412 296.282 228.467 301.084 278.685 68.4141C279.787 63.1405 276.481 57.9456 271.207 56.7649Z" fill="#A369F7"/>
<path d="M277.032 245.75C264.36 234.022 257.984 216.942 255.308 199.861C254.678 195.926 254.285 191.912 252.553 188.291C250.821 184.67 250.27 175.54 246.256 175.382C241.297 175.146 233.82 179.948 233.033 190.574C231.694 206.552 236.102 212.849 232.875 233.865C231.616 241.421 229.254 248.82 228.31 256.455C226.027 277.077 234.213 297.463 250.192 310.765C252.081 312.339 253.34 312.261 254.993 309.742C262.156 298.88 268.374 287.545 273.726 275.739C278.055 266.372 284.903 253.07 277.032 245.75Z" fill="#FFAD92"/>
<path d="M275.222 241.185C262.628 228.197 257.039 198.523 257.039 198.208C256.882 197.106 255.859 196.398 254.757 196.634C253.655 196.87 252.946 197.815 253.183 198.917C253.419 200.176 259.007 230.086 272.467 243.939C273.254 244.727 274.435 244.727 275.222 243.939C275.3 244.018 276.481 242.444 275.222 241.185Z" fill="#B94EFF"/>
<path d="M260.03 313.205C259.952 313.205 265.225 307.931 272.624 303.681C273.569 303.13 273.883 301.949 273.332 301.005C272.781 300.06 271.601 299.746 270.656 300.297C261.919 305.491 257.354 310.372 257.118 310.529C256.41 311.316 256.41 312.575 257.197 313.284C258.613 314.543 260.188 313.205 260.03 313.205Z" fill="#B94EFF"/>
<path d="M58.9237 214.029L185.019 253.385C202.886 258.973 204.382 265.585 201.784 277.155C197.376 296.597 191.158 315.645 183.287 333.985C176.675 349.412 170.615 351.38 157.863 349.019C114.179 340.833 72.8555 323.28 32.3981 304.862C26.2587 302.028 19.647 298.88 16.3411 292.976C12.0907 285.42 14.3733 276.053 16.8134 267.71C26.1013 235.675 28.1477 224.97 36.3337 216.942C42.788 210.487 54.4372 208.362 58.9237 214.029Z" fill="#FFB020"/>
<path d="M135.824 298.565C151.724 292.898 168.017 288.332 184.546 284.869C185.648 284.633 186.278 283.61 186.042 282.508C185.806 281.406 184.783 280.776 183.681 281.012C133.463 291.323 132.282 299.824 125.671 293.763C107.095 279.045 105.285 270.859 96.705 267.868C91.9824 266.215 90.9591 266.766 39.9545 269.363C38.8525 269.442 38.0654 270.308 38.0654 271.41C38.0654 272.512 39.0099 273.299 40.1119 273.299C40.0332 273.299 40.8203 273.299 86.3939 270.937C95.2882 270.465 97.5709 271.252 104.576 279.202C110.243 285.656 116.461 291.638 123.309 296.912C124.805 298.25 126.615 299.195 128.504 299.745C131.023 300.218 133.384 299.431 135.824 298.565Z" fill="white"/>
<path d="M125.277 310.922C135.352 313.677 145.348 316.983 155.109 320.761C157.47 321.706 159.989 322.729 161.327 324.933C162.98 327.53 161.799 332.568 156.762 331.072C136.926 326.665 117.563 320.289 98.9877 311.946C97.4135 311.395 95.9967 310.45 94.816 309.191C93.7928 307.853 93.4779 305.806 94.5799 304.547C95.8393 303.209 97.9645 303.445 99.7748 303.838C109.456 305.885 118.665 309.191 125.277 310.922Z" fill="#B94EFF"/>
<path d="M50.0293 233.235C62.4656 235.911 74.9806 238.508 87.0234 242.444C88.8338 242.916 90.4867 243.782 91.9035 244.963C93.2416 246.222 93.95 248.347 93.0841 250C91.8248 252.283 88.5976 252.283 86.0002 251.889C72.0683 249.685 58.3726 246.065 45.0705 241.263C36.0974 237.957 39.9543 231.897 45.1492 231.975C47.7466 231.975 50.1867 233.077 50.0293 233.235Z" fill="white"/>
<path d="M248.302 120.285C249.168 119.655 249.404 118.396 248.775 117.53C242.95 109.344 229.412 89.5086 219.652 87.5408C215.086 86.5963 210.128 88.2492 204.775 92.4996C200.997 95.4906 197.691 98.9539 193.52 100.607C188.639 102.575 182.421 101.945 176.518 98.8752C169.749 95.3332 167.23 92.4209 134.644 61.094C133.857 60.3068 132.597 60.3856 131.889 61.1727C131.102 61.9598 131.18 63.2192 131.968 63.9276C164.318 95.0184 167.23 98.4816 174.786 102.417C181.713 106.038 189.112 106.668 195.094 104.306C203.673 100.843 210.206 89.7447 218.943 91.4764C227.05 93.1293 240.825 113.043 245.626 119.812C246.177 120.678 247.437 120.914 248.302 120.285Z" fill="white"/>
<path d="M216.582 84.235C220.203 82.8969 224.217 84.8647 225.24 88.5641C227.051 97.2223 213.197 103.204 212.883 89.5086C212.646 86.7538 213.827 83.9202 216.582 84.235Z" fill="#FFB020"/>
<path d="M178.879 97.1436C180.454 95.412 182.421 93.4442 184.783 93.759C187.38 94.0739 188.876 96.9075 189.19 99.5049C190.214 107.061 184.389 110.682 180.532 108.635C176.361 106.353 177.463 98.7178 178.879 97.1436Z" fill="#FFB020"/>
<path d="M128.505 59.5197C128.347 56.7648 130.236 54.4035 132.912 53.8525C135.667 53.459 138.658 55.2693 139.76 58.5752C141.964 64.9508 135.51 70.7754 129.921 67.3121C127.481 65.5805 126.852 62.1172 128.505 59.5197Z" fill="#FFB020"/>
<path d="M241.455 144.528L238.621 155.39C238.227 156.807 237.755 157.2 236.024 156.807L200.053 148.621C200.604 144.921 201.942 141.3 203.831 138.073C204.618 136.814 205.169 136.657 206.35 136.971C217.763 139.962 229.097 142.953 241.455 144.528Z" fill="#F6F8FF"/>
<path d="M235.708 168.534L229.805 183.962C205.798 178.846 182.028 172.627 158.572 165.386L162.822 153.658C163.609 151.533 164.318 150.982 166.836 151.454C190.214 156.256 213.433 161.844 235.708 168.534Z" fill="#FFB020"/>
<path d="M223.902 197.815L218.313 213.557L106.544 184.749C107.725 178.846 109.692 173.178 112.29 167.826C150.228 176.878 187.774 187.189 223.902 197.815Z" fill="#8587FF"/>
<path d="M314.498 87.6196C323.471 89.5086 332.287 91.7913 341.024 94.4674C346.691 96.1991 348.502 98.1668 347.714 104.936C346.77 113.279 345.038 121.544 342.598 129.573C341.26 135.476 337.088 136.027 331.264 134.767C302.613 128.864 301.196 129.1 298.599 126.345C295.765 123.354 296.159 118.632 297.103 114.696C298.599 108.478 300.881 102.496 303.243 96.5139C304.266 93.8377 305.368 91.0829 307.493 89.0364C309.618 86.9899 312.216 87.3047 314.498 87.6196Z" fill="#0071FF"/>
<path d="M331.421 108.321C324.967 99.0326 326.934 101.473 322.684 97.0649C321.897 96.2777 320.559 96.5926 320.165 97.6158C319.693 99.1113 319.457 101.158 321.11 102.732L322.448 104.857L313.003 102.26C311.428 101.866 309.775 102.732 309.382 104.306C309.224 104.779 309.303 103.755 308.752 117.923C308.673 120.206 310.09 122.252 312.294 122.961C320.244 125.558 321.503 126.66 326.934 124.85L331.421 108.321Z" fill="white"/>
<path d="M331.421 108.321L338.505 109.659L334.412 127.211L326.856 124.929L331.421 108.321Z" fill="#4AC0FB"/>
<path d="M102.136 73.2155C116.068 77.8594 118.193 83.1331 116.225 95.8055C113.628 112.256 110.794 128.707 107.724 145.157C105.599 156.649 101.27 160.585 87.4957 156.492L29.8006 139.254C19.332 136.106 16.341 133.036 16.341 122.331C16.341 105.33 19.0172 88.4067 24.2908 72.2709C26.3373 64.4786 30.9812 61.4088 39.3246 60.4643C53.8861 58.7327 88.1254 68.5715 102.136 73.2155Z" fill="#F6F8FF"/>
<path d="M35.8613 103.204C39.6394 126.188 60.8914 139.018 78.9162 132.17C88.2041 128.628 95.2881 119.498 95.5242 109.659C95.9178 96.8288 85.6853 82.7395 69.0773 78.9614C60.4191 76.9936 50.108 78.0955 43.024 83.9202C38.38 87.777 35.8613 92.9719 35.5465 96.6713C35.389 98.8752 35.4678 101 35.8613 103.204Z" fill="#8587FF"/>
<path d="M36.5699 92.8145C44.2049 99.2688 52.8631 104.7 63.2529 109.265C63.4891 108.163 67.1098 95.7268 69.1562 78.8827C55.618 75.8129 41.3713 80.5356 36.5699 92.8145Z" fill="#FFB020"/>
<path d="M35.6253 96.6713C65.929 110.288 63.489 109.265 63.3315 109.029C56.3263 100.843 49.6358 92.4209 43.1028 83.9202C38.4589 87.6983 35.9401 92.8932 35.6253 96.6713Z" fill="white"/>
<path d="M217.684 234.415C218.55 234.415 219.337 233.864 219.573 232.92C219.888 231.897 219.258 230.795 218.156 230.48L83.7964 195.139C82.7732 194.903 81.6712 195.454 81.3564 196.555C81.0415 197.579 81.6712 198.681 82.7731 198.996L217.133 234.337C217.29 234.337 217.526 234.415 217.684 234.415Z" fill="#8587FF"/>
</svg>
