<svg width="47" height="47" viewBox="0 0 47 47" fill="none" xmlns="http://www.w3.org/2000/svg">
<path d="M23.5002 0.583313C10.8502 0.583313 0.583496 10.85 0.583496 23.5C0.583496 36.15 10.8502 46.4166 23.5002 46.4166C36.1502 46.4166 46.4168 36.15 46.4168 23.5C46.4168 10.85 36.1502 0.583313 23.5002 0.583313ZM34.1335 16.1666C33.7897 19.7875 32.3002 28.5875 31.5439 32.6437C31.2231 34.3625 30.5814 34.9354 29.9856 35.0041C28.6564 35.1187 27.6481 34.1333 26.3647 33.2854C24.3481 31.9562 23.2022 31.1312 21.2543 29.8479C18.9856 28.3583 20.4522 27.5333 21.7585 26.2041C22.1022 25.8604 27.9689 20.5208 28.0835 20.0396C28.0994 19.9667 28.0973 19.891 28.0773 19.8191C28.0574 19.7472 28.0201 19.6813 27.9689 19.6271C27.8314 19.5125 27.6481 19.5583 27.4877 19.5812C27.2814 19.6271 24.0731 21.7583 17.8168 25.975C16.9002 26.5937 16.0752 26.9146 15.3418 26.8916C14.5168 26.8687 12.9585 26.4333 11.7897 26.0437C10.346 25.5854 9.22308 25.3333 9.31474 24.5312C9.36058 24.1187 9.9335 23.7062 11.0106 23.2708C17.7022 20.3604 22.1481 18.4354 24.371 17.5187C30.7418 14.8604 32.0481 14.4021 32.9189 14.4021C33.1022 14.4021 33.5377 14.4479 33.8127 14.6771C34.0418 14.8604 34.1106 15.1125 34.1335 15.2958C34.1106 15.4333 34.1564 15.8458 34.1335 16.1666Z" fill="#45CAFF"/>
</svg>
